<?xml version="1.0" encoding="utf-8"?>
<!-- Generator: Adobe Illustrator 24.3.0, SVG Export Plug-In . SVG Version: 6.00 Build 0)  -->
<svg version="1.1" xmlns="http://www.w3.org/2000/svg" xmlns:xlink="http://www.w3.org/1999/xlink" x="0px" y="0px"
	 viewBox="0 0 864 432" style="enable-background:new 0 0 864 432;" xml:space="preserve">
<style type="text/css">
	.st0{display:none;}
	.st1{display:inline;fill:#E65931;}
	.st2{display:inline;fill:#002B49;stroke:#002B49;stroke-miterlimit:10;}
	.st3{display:inline;fill:#002B49;}
	.st4{fill:#002B49;}
	.st5{fill:none;}
	.st6{fill:#D6D1CA;}
	.st7{fill:#E65931;}
</style>
<g id="misc" class="st0">
	<rect x="334.12" y="149" class="st1" width="9.9" height="19"/>
	<rect x="346.12" y="149" class="st1" width="9.9" height="19"/>
	<rect x="369.78" y="149.16" class="st1" width="8.94" height="8.84"/>
	<rect x="357.78" y="149.16" class="st1" width="8.94" height="8.84"/>
	<path class="st2" d="M345.09,188c-0.58,0-1.05-0.39-1.05-0.88v-61.25c0-0.48,0.47-0.88,1.05-0.88c0.58,0,1.05,0.39,1.05,0.88v61.25
		C346.14,187.61,345.67,188,345.09,188z"/>
	<path class="st2" d="M380.09,209c-0.58,0-1.05-0.45-1.05-1.01v-70.97c0-0.56,0.47-1.01,1.05-1.01c0.58,0,1.05,0.45,1.05,1.01v70.97
		C381.14,208.55,380.67,209,380.09,209z"/>
	<path class="st2" d="M357.09,233c-0.58,0-1.05-0.66-1.05-1.47V128.47c0-0.81,0.47-1.47,1.05-1.47c0.58,0,1.05,0.66,1.05,1.47
		v103.05C358.14,232.34,357.67,233,357.09,233z"/>
	<path class="st2" d="M333.09,169c-0.58,0-1.05-0.27-1.05-0.6v-41.8c0-0.33,0.47-0.6,1.05-0.6c0.58,0,1.05,0.27,1.05,0.6v41.8
		C334.14,168.73,333.67,169,333.09,169z"/>
	<path class="st3" d="M403,169c0,0.58-0.45,1.05-1,1.05h-70c-0.55,0-1-0.47-1-1.05c0-0.58,0.45-1.05,1-1.05h70
		C402.55,167.95,403,168.42,403,169z"/>
	<path class="st3" d="M400,159c0,0.58-0.27,1.05-0.6,1.05h-41.8c-0.33,0-0.6-0.47-0.6-1.05c0-0.58,0.27-1.05,0.6-1.05h41.8
		C399.73,157.95,400,158.42,400,159z"/>
</g>
<g id="Colored_Logo">
</g>
<g id="BW">
	<g>
		<g>
			<g>
				<path class="st4" d="M502.32,326.36h-2.98c0.16-3.39,0.24-6.97,0.24-10.73c0-3.7-0.08-6.94-0.24-9.7h2.98
					c-0.15,2.86-0.22,6.09-0.22,9.7C502.1,319.41,502.17,322.99,502.32,326.36z"/>
				<path class="st4" d="M521.45,326.36h-2.26c0-0.19-1.46-2.2-4.38-6.04c-3.04-4.02-4.78-6.6-5.21-7.74h-0.16
					c0.19,2.03,0.28,3.79,0.28,5.27c0,2.71,0.06,5.54,0.19,8.51h-2.56c0.16-2.75,0.24-5.68,0.24-8.79c0-3.04-0.08-5.7-0.24-7.97
					h2.98c0,0.28,1.33,2.21,4,5.78c2.8,3.76,4.4,6.22,4.8,7.39h0.16c-0.18-2.05-0.27-3.81-0.27-5.29c0-2.99-0.07-5.62-0.2-7.88h2.62
					c-0.14,2.25-0.2,4.91-0.2,7.97C521.24,320.69,521.31,323.62,521.45,326.36z"/>
				<path class="st4" d="M537.6,309.6l-0.08,2.02c-1.83-0.09-3.67-0.14-5.52-0.14c-0.03,1.24-0.05,3.26-0.05,6.09
					c0,2.87,0.04,5.8,0.13,8.79h-2.81c0.12-2.88,0.17-5.81,0.17-8.79c0-2.37-0.03-4.41-0.08-6.09c-1.35,0-3.23,0.06-5.65,0.17
					l0.08-2.06H537.6z"/>
				<path class="st4" d="M551.22,324.23l-0.08,2.13h-11.28c0.14-2.65,0.2-5.58,0.2-8.79c0-3.04-0.07-5.7-0.2-7.97h10.59l-0.08,2.13
					c-2.6-0.11-5.24-0.17-7.94-0.17c0.06,1.3,0.09,3.01,0.09,5.13c2.33,0,4.51-0.05,6.54-0.16l-0.08,2.09
					c-2.06-0.08-4.22-0.13-6.47-0.13c0,2.1,0.04,4.08,0.13,5.92C545.59,324.42,548.45,324.35,551.22,324.23z"/>
				<path class="st4" d="M567.82,326.36h-2.98c-0.86-2.4-1.51-4.04-1.97-4.94c-0.46-0.9-0.96-1.48-1.52-1.74
					c-0.56-0.26-1.46-0.39-2.69-0.39c-0.73,0-1.39,0.01-1.98,0.03c0,2.65,0.06,5,0.17,7.05H554c0.14-2.65,0.2-5.58,0.2-8.79
					c0-3.04-0.07-5.7-0.2-7.97h2.04c0.47,0,1.03-0.01,1.67-0.04c0.64-0.02,1.37-0.04,2.17-0.04c4.08,0,6.12,1.31,6.12,3.92
					c0,2.15-1.15,3.66-3.45,4.54v0.14c0.99,0.27,1.79,0.9,2.4,1.88C565.56,320.99,566.52,323.11,567.82,326.36z M563.38,314.34
					c0-1.97-1.42-2.95-4.25-2.95c-1.01,0-1.87,0.05-2.57,0.16c0.06,1.46,0.09,3.43,0.09,5.9c0.55,0.02,1.07,0.03,1.54,0.03
					C561.65,317.48,563.38,316.43,563.38,314.34z"/>
				<path class="st4" d="M584.35,326.36h-2.26c0-0.19-1.46-2.2-4.38-6.04c-3.04-4.02-4.78-6.6-5.21-7.74h-0.16
					c0.19,2.03,0.28,3.79,0.28,5.27c0,2.71,0.06,5.54,0.19,8.51h-2.56c0.16-2.75,0.24-5.68,0.24-8.79c0-3.04-0.08-5.7-0.24-7.97
					h2.98c0,0.28,1.33,2.21,4,5.78c2.8,3.76,4.4,6.22,4.8,7.39h0.16c-0.18-2.05-0.27-3.81-0.27-5.29c0-2.99-0.07-5.62-0.2-7.88h2.62
					c-0.14,2.25-0.2,4.91-0.2,7.97C584.15,320.69,584.21,323.62,584.35,326.36z"/>
				<path class="st4" d="M603.83,326.36h-3.25c0-0.58-0.55-2.33-1.65-5.27h-7.61c-1.09,2.9-1.63,4.66-1.63,5.27h-3.08
					c0-0.33,1.16-3.07,3.49-8.24c2.33-5.17,3.49-8.01,3.49-8.52h3.64c0,0.5,1.1,3.3,3.3,8.4
					C602.73,323.11,603.83,325.89,603.83,326.36z M598.29,319.22c-2.03-4.9-3.04-7.51-3.04-7.83h-0.17c0,0.28-1.05,2.89-3.15,7.83
					H598.29z"/>
				<path class="st4" d="M617.42,309.6l-0.08,2.02c-1.83-0.09-3.67-0.14-5.52-0.14c-0.03,1.24-0.05,3.26-0.05,6.09
					c0,2.87,0.04,5.8,0.13,8.79h-2.81c0.12-2.88,0.17-5.81,0.17-8.79c0-2.37-0.03-4.41-0.08-6.09c-1.35,0-3.23,0.06-5.65,0.17
					l0.08-2.06H617.42z"/>
				<path class="st4" d="M622.58,326.36h-2.9c0.14-2.75,0.2-5.68,0.2-8.79c0-3.06-0.07-5.71-0.2-7.97h2.9
					c-0.13,2.31-0.19,4.97-0.19,7.97C622.39,320.7,622.46,323.63,622.58,326.36z"/>
				<path class="st4" d="M642.92,317.71c0,2.79-0.88,5.02-2.64,6.66c-1.76,1.65-3.79,2.47-6.09,2.47c-2.21,0-4.15-0.76-5.81-2.28
					c-1.67-1.52-2.5-3.58-2.5-6.17c0-2.8,0.88-5.03,2.64-6.67c1.76-1.64,3.79-2.46,6.09-2.46c2.21,0,4.15,0.76,5.81,2.28
					C642.09,313.05,642.92,315.11,642.92,317.71z M640.17,318c0-2.13-0.6-3.79-1.81-4.98c-1.21-1.18-2.59-1.77-4.15-1.77
					c-1.45,0-2.75,0.62-3.88,1.87c-1.14,1.24-1.7,2.89-1.7,4.93c0,2.12,0.6,3.78,1.81,4.98c1.21,1.19,2.59,1.79,4.15,1.79
					c1.45,0,2.75-0.63,3.88-1.88C639.61,321.68,640.17,320.04,640.17,318z"/>
				<path class="st4" d="M660.31,326.36h-2.26c0-0.19-1.46-2.2-4.38-6.04c-3.04-4.02-4.78-6.6-5.21-7.74h-0.16
					c0.19,2.03,0.28,3.79,0.28,5.27c0,2.71,0.06,5.54,0.19,8.51h-2.56c0.16-2.75,0.24-5.68,0.24-8.79c0-3.04-0.08-5.7-0.24-7.97
					h2.98c0,0.28,1.33,2.21,4,5.78c2.8,3.76,4.4,6.22,4.8,7.39h0.16c-0.18-2.05-0.27-3.81-0.27-5.29c0-2.99-0.07-5.62-0.2-7.88h2.62
					c-0.14,2.25-0.2,4.91-0.2,7.97C660.11,320.69,660.17,323.62,660.31,326.36z"/>
				<path class="st4" d="M679.79,326.36h-3.25c0-0.58-0.55-2.33-1.65-5.27h-7.61c-1.09,2.9-1.63,4.66-1.63,5.27h-3.08
					c0-0.33,1.16-3.07,3.49-8.24c2.33-5.17,3.49-8.01,3.49-8.52h3.64c0,0.5,1.1,3.3,3.3,8.4
					C678.69,323.11,679.79,325.89,679.79,326.36z M674.25,319.22c-2.03-4.9-3.04-7.51-3.04-7.83h-0.17c0,0.28-1.05,2.89-3.15,7.83
					H674.25z"/>
				<path class="st4" d="M693.14,324.26l-0.08,2.1h-11.02c0.12-2.15,0.17-5.08,0.17-8.79c0-3.22-0.06-5.88-0.17-7.97h2.87
					c-0.1,1.79-0.16,4.45-0.16,7.97c0,2.86-0.06,5.14-0.17,6.84C687.3,324.42,690.15,324.36,693.14,324.26z"/>
				<path class="st4" d="M534.24,356.21h-2.53c0-2-0.14-4.89-0.42-8.68s-0.43-6.05-0.44-6.81h-0.13c-0.9,2.91-2.03,6.08-3.41,9.49
					c-1.38,3.41-2.06,5.41-2.06,5.99h-1.82c0-0.63-0.64-2.66-1.92-6.1s-2.09-5.74-2.43-6.91c-0.34-1.17-0.57-1.99-0.7-2.48h-0.13
					c-0.03,1.23-0.2,3.71-0.53,7.44s-0.49,6.41-0.49,8.04h-2.31c0-0.09,0.3-2.56,0.91-7.41c0.61-4.85,0.91-8.22,0.91-10.11h3.54
					c0,0.99,0.72,3.45,2.15,7.4s2.15,6.34,2.15,7.17h0.13c0-0.83,0.81-3.23,2.42-7.19c1.61-3.96,2.42-6.42,2.42-7.38H533
					c0,1.89,0.21,5.25,0.62,10.06S534.24,356.05,534.24,356.21z"/>
				<path class="st4" d="M551.38,356.21h-2.78c0-0.49-0.47-2-1.41-4.52h-6.52c-0.93,2.48-1.4,3.99-1.4,4.52h-2.64
					c0-0.28,1-2.63,2.99-7.06c2-4.43,2.99-6.86,2.99-7.3h3.12c0,0.43,0.94,2.83,2.82,7.2C550.44,353.42,551.38,355.8,551.38,356.21z
					 M546.63,350.09c-1.74-4.2-2.61-6.43-2.61-6.71h-0.15c0,0.24-0.9,2.48-2.7,6.71H546.63z"/>
				<path class="st4" d="M565.17,356.21h-2.56c-0.74-2.05-1.3-3.47-1.69-4.24c-0.39-0.77-0.83-1.27-1.3-1.49
					c-0.48-0.22-1.25-0.34-2.31-0.34c-0.63,0-1.19,0.01-1.69,0.03c0,2.27,0.05,4.28,0.15,6.04h-2.45c0.12-2.27,0.17-4.78,0.17-7.53
					c0-2.61-0.06-4.89-0.17-6.83h1.75c0.4,0,0.88-0.01,1.43-0.03c0.55-0.02,1.17-0.03,1.86-0.03c3.5,0,5.25,1.12,5.25,3.36
					c0,1.84-0.99,3.13-2.96,3.89v0.12c0.85,0.23,1.54,0.77,2.06,1.61S564.05,353.42,565.17,356.21z M561.36,345.9
					c0-1.69-1.22-2.53-3.65-2.53c-0.87,0-1.61,0.04-2.21,0.13c0.05,1.26,0.08,2.94,0.08,5.06c0.48,0.02,0.91,0.03,1.32,0.03
					C559.88,348.59,561.36,347.7,561.36,345.9z"/>
				<path class="st4" d="M579.25,356.21h-2.88c0-0.26-0.85-1.46-2.54-3.61c-1.83-2.32-3.12-3.48-3.86-3.48h-0.36
					c0,1.71,0.04,4.08,0.11,7.09h-2.46c0.12-2.27,0.17-4.78,0.17-7.53c0-2.61-0.06-4.89-0.17-6.83h2.46
					c-0.07,1.97-0.11,3.94-0.11,5.91h0.27c0.36,0,1.42-0.94,3.17-2.81c1.73-1.84,2.6-2.87,2.6-3.09h2.52c0,0.22-0.82,1.14-2.46,2.74
					s-2.86,2.67-3.65,3.2v0.12c0.89,0.34,2.35,1.8,4.39,4.37C578.31,354.66,579.25,355.97,579.25,356.21z"/>
				<path class="st4" d="M590.94,354.38l-0.07,1.83h-9.67c0.12-2.27,0.17-4.78,0.17-7.53c0-2.61-0.06-4.89-0.17-6.83h9.08
					l-0.07,1.83c-2.22-0.1-4.49-0.15-6.81-0.15c0.05,1.11,0.08,2.58,0.08,4.4c2,0,3.87-0.04,5.61-0.13l-0.07,1.79
					c-1.77-0.07-3.61-0.11-5.54-0.11c0,1.8,0.04,3.49,0.11,5.07C586.12,354.54,588.56,354.49,590.94,354.38z"/>
				<path class="st4" d="M603.59,341.84l-0.07,1.74c-1.57-0.08-3.15-0.12-4.74-0.12c-0.03,1.06-0.04,2.8-0.04,5.22
					c0,2.46,0.04,4.97,0.11,7.53h-2.41c0.1-2.47,0.15-4.98,0.15-7.53c0-2.04-0.02-3.78-0.07-5.22c-1.16,0-2.77,0.05-4.84,0.15
					l0.07-1.76H603.59z"/>
				<path class="st4" d="M624.05,343.04c0,2.04-0.78,3.57-2.33,4.59c-1.55,1.01-3.64,1.52-6.26,1.52c-0.33,0-0.62-0.01-0.86-0.03
					c0,1.96,0.07,4.32,0.22,7.09h-2.58c0.13-2.55,0.2-5.61,0.2-9.2c0-3.08-0.07-5.86-0.2-8.31h1.92c0.21,0,0.8-0.01,1.77-0.04
					c0.97-0.03,1.8-0.04,2.48-0.04c1.72,0,3.09,0.39,4.11,1.18S624.05,341.66,624.05,343.04z M621.8,343.82
					c0-2.3-1.57-3.46-4.72-3.46c-0.77,0-1.64,0.07-2.6,0.2c0.06,1.46,0.09,3.74,0.09,6.83c0.31,0.02,0.7,0.03,1.16,0.03
					C619.78,347.42,621.8,346.22,621.8,343.82z"/>
				<path class="st4" d="M636.23,354.4l-0.07,1.8h-9.44c0.1-1.85,0.15-4.36,0.15-7.53c0-2.76-0.05-5.04-0.15-6.83h2.46
					c-0.09,1.53-0.13,3.81-0.13,6.83c0,2.45-0.05,4.4-0.15,5.87C631.22,354.54,633.67,354.49,636.23,354.4z"/>
				<path class="st4" d="M651.43,356.21h-2.78c0-0.49-0.47-2-1.41-4.52h-6.52c-0.93,2.48-1.4,3.99-1.4,4.52h-2.64
					c0-0.28,1-2.63,2.99-7.06s2.99-6.86,2.99-7.3h3.12c0,0.43,0.94,2.83,2.82,7.2C650.49,353.42,651.43,355.8,651.43,356.21z
					 M646.69,350.09c-1.74-4.2-2.61-6.43-2.61-6.71h-0.15c0,0.24-0.9,2.48-2.7,6.71H646.69z"/>
				<path class="st4" d="M664.2,354.27l-0.17,1.84c-1.17,0.26-2.25,0.39-3.22,0.39c-2.72,0-4.76-0.69-6.13-2.08
					c-1.37-1.39-2.06-3.08-2.06-5.08c0-2.05,0.75-3.85,2.26-5.39c1.51-1.54,3.56-2.31,6.17-2.31c0.77,0,1.56,0.1,2.35,0.3
					l-0.35,1.92c-0.91-0.26-1.73-0.39-2.48-0.39c-1.86,0-3.25,0.54-4.19,1.61c-0.94,1.08-1.41,2.38-1.41,3.9
					c0,1.55,0.54,2.9,1.62,4.04c1.08,1.14,2.6,1.71,4.55,1.71C661.98,354.74,662.99,354.58,664.2,354.27z"/>
				<path class="st4" d="M676.32,354.38l-0.07,1.83h-9.67c0.12-2.27,0.17-4.78,0.17-7.53c0-2.61-0.06-4.89-0.17-6.83h9.08
					l-0.07,1.83c-2.22-0.1-4.49-0.15-6.81-0.15c0.05,1.11,0.08,2.58,0.08,4.4c2,0,3.87-0.04,5.61-0.13l-0.07,1.79
					c-1.77-0.07-3.61-0.11-5.54-0.11c0,1.8,0.04,3.49,0.11,5.07C671.5,354.54,673.94,354.49,676.32,354.38z"/>
			</g>
			<g>
				<path class="st5" d="M510.76,123.31c-8.17,11.6-14.05,24.92-16.95,39.33c2.62-12.8,7.61-24.72,14.44-35.35
					C509.01,126,509.84,124.67,510.76,123.31z"/>
				<path class="st5" d="M525.62,106.65c18.59-17.03,43.36-27.43,70.56-27.43c8.34,0,16.45,1.01,24.22,2.85
					c5.34,1.05,10.53,2.73,14.68,4.3c-12.01-4.81-25.11-7.49-38.84-7.49c-29.59,0-56.29,12.32-75.31,32.09
					C522.53,109.39,524.09,107.95,525.62,106.65z"/>
				<path class="st5" d="M666.47,106.39v-0.23c-0.2-0.11-0.43-0.22-0.64-0.32C666.04,106.03,666.26,106.2,666.47,106.39z"/>
				<path class="st5" d="M689.15,136.03h0.23c-4.94-9.7-11.34-18.54-18.93-26.2v0.4C677.93,117.79,684.25,126.49,689.15,136.03z"/>
				<path class="st5" d="M694.71,148.91h0.18c-1.22-3.48-2.6-6.88-4.16-10.18h-0.21C692.09,142.03,693.48,145.43,694.71,148.91z"/>
				<path class="st5" d="M700.68,183.72c0,7.1-0.72,14.04-2.07,20.74c1.4-6.81,2.13-13.86,2.13-21.08c0-11.08-1.74-21.75-4.93-31.77
					c-0.06,0-0.12,0-0.18,0C698.89,161.73,700.68,172.51,700.68,183.72z"/>
				<path class="st6" d="M625.39,96.94v27.57h11.46V98.07c0-0.28,0.04-0.54,0.1-0.79C633.27,96.93,629.37,96.8,625.39,96.94z"/>
				<path class="st6" d="M609.94,124.5h11.46V97.17c-3.86,0.32-7.72,0.93-11.46,1.84V124.5z"/>
				<path class="st6" d="M531.55,229.42c4.49-1.71,12.84-4.89,19.18-12.81c6.18-7.73,8.75-19.3,7.23-32.58
					c-0.82-7.11-2.61-14.22-4.35-21.09c-0.6-2.39-1.21-4.82-1.79-7.27c-0.29-1-0.59-2-0.88-2.98c-2.46-8.33-5.01-16.95-5.22-25.9
					c-0.14-6.08,0.81-14.96,6.12-22.68c5.6-8.14,15.92-12.79,23.58-15.25c18.36-5.9,36.91-4.65,51.83-1.47
					c2.46,0.44,4.9,0.96,7.33,1.56c-8.13-2.68-17.22-4.61-27.2-5.13c-9.01-0.47-34.6-1.79-55.09,12.52
					c-9.39,6.55-15.74,19.21-16.12,30.49c-0.36,10.71,3.91,21.25,7.59,31.12c0.85,2.28,1.66,4.44,2.42,6.6
					c4.25,12.06,5.51,23.81,3.64,33.97c-2.21,12.03-8.58,21.46-18.93,28.02c-7.49,4.75-16.08,6.21-23.66,6.27
					C513.95,233.34,522.5,232.86,531.55,229.42z"/>
				<path class="st6" d="M670.46,136.03h18.69c-4.91-9.54-11.22-18.24-18.69-25.8V136.03z"/>
				<path class="st6" d="M567.95,206.13c0.41-2.62,0.71-5.25,0.83-7.9c0.14-2.65,0.16-5.3,0-7.95c-0.14-2.65-0.42-5.28-0.85-7.89
					c-0.41-2.61-1-5.19-1.73-7.72c-0.73-2.54-1.67-4.95-2.73-7.47l-1.61-3.81c-0.08-0.2-0.16-0.41-0.24-0.61l0.72,5.84
					c0.27,2.19,0.56,4.39,0.75,6.63c0.94,10.93-0.31,23.17-4.35,33.43c-4.77,12.11-14.18,19.27-26.04,23.78
					c-7.5,2.85-14.67,3.78-20.84,3.78c-1.56,0-3.05-0.06-4.47-0.16c7.36,2.49,18.49,4.94,31.71,3.17c2.74-0.4,5.43-0.98,7.95-1.91
					c2.52-0.94,4.9-2.17,6.97-3.76c4.16-3.18,7.21-7.58,9.42-12.32C565.66,216.49,567.11,211.36,567.95,206.13z"/>
				<path class="st6" d="M651.18,124.71V99.99c-3.18-0.92-6.64-1.7-10.37-2.24c0.01,0.11,0.03,0.22,0.03,0.33v26.64H651.18z"/>
				<rect x="655.8" y="138.73" class="st6" width="10.67" height="10.18"/>
				<rect x="640.84" y="138.73" class="st6" width="10.34" height="10.18"/>
				<path class="st6" d="M655.8,101.47l0,23.24h10.67v-18.32c-0.21-0.19-0.43-0.37-0.64-0.55
					C663.04,104.39,659.7,102.86,655.8,101.47z"/>
				<path class="st6" d="M603.5,89.04c-10.78,0.48-20.17,2.65-27.92,6.45c-9.13,4.47-16.22,11.37-19.96,19.44
					c-4.09,8.82-4.75,19.91-1.99,33.89c0.88,4.46,2.02,8.97,3.12,13.32c0.58,2.29,1.16,4.61,1.72,6.95
					c-0.37-2.14-0.75-4.29-1.11-6.44c-0.37-2.18-0.74-4.36-1.07-6.57c-0.33-2.21-0.61-4.43-0.83-6.68
					c-0.44-4.49-0.56-9.1-0.03-13.73c0.13-1.16,0.3-2.31,0.54-3.46c0.1-0.58,0.25-1.15,0.39-1.72c0.14-0.57,0.28-1.14,0.43-1.71
					l0.53-1.68l0.27-0.84l0.32-0.82l0.64-1.64c0.23-0.54,0.48-1.07,0.73-1.6c1.97-4.26,4.65-8.13,7.72-11.62
					c0.37-0.45,0.78-0.86,1.19-1.28l1.21-1.25l1.27-1.19l0.64-0.59l0.66-0.56l1.33-1.12c0.45-0.37,0.92-0.71,1.38-1.06
					c0.91-0.72,1.88-1.36,2.83-2.01c0.47-0.34,0.98-0.61,1.47-0.92c0.5-0.3,0.98-0.62,1.49-0.89c1.02-0.55,2.03-1.14,3.07-1.61
					l1.55-0.75c0.52-0.25,1.05-0.46,1.58-0.69c0.53-0.22,1.06-0.45,1.59-0.67l1.62-0.59c2.16-0.8,4.38-1.42,6.61-1.97
					c2.24-0.5,4.5-0.94,6.77-1.19c4.54-0.59,9.08-0.62,13.56-0.45c2.24,0.1,4.47,0.23,6.68,0.4c1.11,0.08,2.23,0.2,3.35,0.3
					c1.12,0.09,2.23,0.28,3.34,0.42c4.44,0.64,8.84,1.54,13.14,2.74c2.73,0.78,5.41,1.69,8.06,2.68c0.02-0.05,0.04-0.1,0.06-0.15
					C636.45,91.5,619.98,88.3,603.5,89.04z"/>
				<path class="st6" d="M591.63,100.19l-1.47,0.58l-1.45,0.64c-0.48,0.22-0.97,0.41-1.44,0.65l-1.42,0.71
					c-0.96,0.45-1.85,1-2.77,1.51c-0.46,0.25-0.89,0.55-1.34,0.83c-0.44,0.29-0.9,0.54-1.32,0.85c-3.45,2.36-6.69,5.08-9.43,8.23
					c-2.77,3.12-5.17,6.57-6.93,10.32l-0.66,1.4l-0.58,1.44l-0.29,0.72l-0.24,0.73l-0.49,1.47c-0.14,0.5-0.26,1-0.4,1.49
					c-0.13,0.5-0.27,0.99-0.36,1.5c-0.03,0.16-0.07,0.32-0.1,0.47c-0.03,0.24-0.07,0.48-0.1,0.72c-0.29,2.7-0.39,5.4-0.25,8.08
					c0.14,2.67,0.52,5.31,1.14,7.87c0.62,2.56,1.52,5.04,2.57,7.48c1.05,2.44,2.29,4.84,3.5,7.35c1.24,2.48,2.38,5.18,3.29,7.9
					c0.9,2.73,1.57,5.53,2.1,8.34c0.5,2.82,0.82,5.66,0.99,8.51c0.29,5.7-0.1,11.44-1.19,17.05c-0.55,2.8-1.28,5.58-2.24,8.28
					c-0.95,2.71-2.11,5.35-3.52,7.87c-1.41,2.52-3.07,4.91-5.02,7.06c-1.14,1.26-2.38,2.43-3.71,3.48
					c5.87-2.66,12.18-6.56,18.03-12.32c10-9.84,15.93-24.32,13.49-38.13c-3.37-19.05-21.51-34.54-19.77-53.81
					c1.14-12.54,10.76-22.4,21.46-27.98c3.71-1.93,7.54-3.38,11.47-4.43c-1.86,0.3-3.69,0.73-5.51,1.17
					C595.61,98.8,593.59,99.41,591.63,100.19z"/>
				<path class="st6" d="M670.46,138.73v10.18h24.26c-1.23-3.48-2.62-6.88-4.2-10.18H670.46z"/>
				<path class="st6" d="M524.86,209.63c10.77-6.17,14.54-17.16,15.82-23.16c2.33-10.87-0.81-21.81-3.58-31.46
					c-2.64-9.19-4.91-18.27-4.31-27.84c0-0.19-0.01-0.38-0.01-0.57l0.05,0c0.12-1.54,0.3-3.1,0.58-4.67l0.01-0.07
					c0.12-0.66,0.28-1.57,0.57-2.8c0.45-1.88,1.02-3.72,1.7-5.51c-1.88,3.11-3.54,6.74-4.56,10.93c-1.62,6.65-2,13.6,1.09,27.69
					c0.34,1.56,0.71,3.12,1.11,4.77c1.94,8.11,4.13,17.29,2.11,25.78c-2.06,8.62-9.65,16.13-19.36,19.13
					c-3.02,0.93-6.2,1.4-9.51,1.4c-3.64,0-7.45-0.56-11.38-1.69c-0.7-0.2-1.34-0.42-1.94-0.64c0.58,3.41,1.32,6.76,2.21,10.05
					C500.54,212.87,513.14,216.34,524.86,209.63z"/>
				<path class="st6" d="M529.15,223.8c24.88-15.78,18.53-44.77,14.25-57.36c2.25,6.61,1.99,15.76-0.05,22.32
					c-2.19,7.01-5.19,13.85-9.65,19.71c-3.8,5-8.73,9.25-14.48,11.86c-6.18,2.81-13.01,3.13-19.69,2.64
					c0.89,2.18,1.86,4.33,2.89,6.43C510.5,229.98,520.66,229.19,529.15,223.8z"/>
				<path class="st6" d="M651.18,222.15v-70.58c-1.39,0-2.77,0-4.16,0c-2.06,0-4.12,0-6.18,0v79.2c0,1.42-0.88,2.54-1.99,2.54
					s-1.99-1.12-1.99-2.54v-79.21c-3.82,0-7.64-0.01-11.46-0.01v22.04c0,0.98-0.89,1.77-1.99,1.77c-1.1,0-1.99-0.79-1.99-1.77
					v-22.04c-1.35,0-2.69,0-4.04,0c-2.37,0-4.75,0.12-7.12,0.06c-2.08-0.06-4.01-0.73-4.37-3.03c-0.46-3.02-0.19-6.23-0.21-9.28
					c-0.01-3.11-0.02-6.27-0.01-9.35c0.01-4.6,0.04-9.2,0.08-13.81c0.03-4.17,0.07-8.33,0.12-12.5c0.01-1.17,0.03-2.34,0.04-3.51
					c-4.94,1.57-9.54,3.76-13.46,6.69c-4.91,3.67-8.77,8.96-9.92,14.98c-5.08,26.63,28.6,49.69,37.22,72.53
					c11.51,30.49,3.68,68.63-23.14,88.56c-1.29,0.96-4.39,3.78-6.59,4.79c2.06,0.12,4.13,0.2,6.23,0.2
					c20.16,0,38.98-5.72,54.95-15.62c-0.01-9.77-0.01-19.54-0.01-29.3L651.18,222.15z"/>
				<path class="st6" d="M515.11,198.75c8.63-2.67,15.36-9.26,17.16-16.78c1.85-7.73-0.16-16.14-2.11-24.27
					c-0.38-1.59-0.78-3.24-1.12-4.83c-3.23-14.69-2.8-22.05-1.07-29.15c3.1-12.73,11.49-20.61,15.51-24.4
					c22.23-20.89,53.71-19.26,64.06-18.73c1.78,0.09,4.14,0.22,7.1,0.58c0,0,2.3,0.28,4.58,0.68c0.39,0.07,0.79,0.15,1.18,0.23
					c-7.78-1.85-15.88-2.85-24.22-2.85c-27.2,0-51.96,10.4-70.56,27.43c1.01-0.86,2-1.68,2.96-2.42c3.9-3.33,8.05-6.39,12.41-9.12
					c-2.81,2.04-5.3,4.65-7.51,7.32c-5.21,7.88-5.74,10.07-7.28,16.51l-0.32,1.33c-1.63,6.74-1.99,14.01-1.07,21.59
					c0.08,0.66,0.16,1.33,0.25,1.99c1.29,10.23,1.22,20.24-3.55,29.66c-2.85,5.64-7.05,10.58-12.11,14.35
					c-2.64,1.97-5.41,3.23-8.54,4.24c-0.61,0.2-8.5,2.06-8.54,1.64c-0.32-3.3-0.48-6.65-0.48-10.03c0-0.8,0.01-1.59,0.03-2.38
					c12.4,2.07,25.05-5.19,29.38-17.18c2.3-6.39,1.48-12.95,0.6-19.9c-0.08-0.67-0.17-1.34-0.25-2c-0.97-7.97-0.59-15.63,1.14-22.75
					l0.32-1.32c0.05-0.21,0.1-0.41,0.15-0.61c-1.07,2.17-1.89,4.28-2.48,6.39c-1.59,5.62-1.69,11.75-1.8,17.68
					c-0.01,0.82-0.03,1.64-0.05,2.46c-0.1,4.61-0.32,9.51-1.78,14.28c-2.56,8.39-9.37,14.08-17.53,15.56
					c-2.79,0.73-5.49,0.84-7.43,0.8c-0.23,2.86-0.39,5.74-0.39,8.65c0,4.69,0.34,9.3,0.94,13.83c0.91,0.39,2.05,0.84,3.38,1.22
					C502.97,200.42,509.38,200.52,515.11,198.75z"/>
				<path class="st6" d="M695.63,151.62c-1.29,0.01-2.58-0.01-3.87-0.01c-7.1-0.01-14.2-0.01-21.3-0.02v48.7
					c0,1.17-0.89,2.12-1.99,2.12c-1.1,0-1.99-0.95-1.99-2.12v-48.7c-3.56,0-7.11-0.01-10.67-0.01l0,89.4c0,9.42,0,18.83,0,28.25
					c21.64-15.04,37.33-38.03,42.81-64.76c1.35-6.71,2.07-13.64,2.07-20.74C700.68,172.51,698.89,161.73,695.63,151.62z"/>
				<path class="st6" d="M508.25,127.29c-6.83,10.62-11.82,22.55-14.44,35.35c-0.52,2.58-0.92,5.2-1.25,7.84
					c2.49-15.31,7.27-26.95,10.96-34.38C504.78,133.57,506.29,130.57,508.25,127.29z"/>
				<rect x="609.94" y="124.5" class="st7" width="11.46" height="24.4"/>
				<rect x="625.39" y="124.5" class="st7" width="11.46" height="24.4"/>
				<rect x="655.8" y="124.71" class="st7" width="10.67" height="11.32"/>
				<rect x="640.84" y="124.71" class="st7" width="10.34" height="11.32"/>
				<path class="st4" d="M499.56,173.93c8.16-1.48,14.96-7.17,17.53-15.56c1.46-4.77,1.68-9.67,1.78-14.28
					c0.02-0.82,0.03-1.64,0.05-2.46c0.1-5.93,0.21-12.07,1.8-17.68c0.59-2.1,1.41-4.21,2.48-6.39c-0.05,0.2-0.1,0.4-0.15,0.61
					l-0.32,1.32c-1.72,7.12-2.1,14.77-1.14,22.75c0.08,0.67,0.17,1.34,0.25,2c0.87,6.95,1.7,13.51-0.6,19.9
					c-4.32,11.99-16.97,19.25-29.38,17.18c-0.02,0.79-0.03,1.58-0.03,2.38c0,3.38,0.17,6.73,0.48,10.03
					c0.04,0.42,7.93-1.44,8.54-1.64c3.13-1.01,5.9-2.27,8.54-4.24c5.07-3.77,9.26-8.72,12.11-14.35c4.77-9.42,4.84-19.43,3.55-29.66
					c-0.08-0.66-0.17-1.33-0.25-1.99c-0.92-7.59-0.56-14.85,1.07-21.59l0.32-1.33c1.54-6.44,2.07-8.63,7.28-16.51
					c2.21-2.67,4.7-5.28,7.51-7.32c-4.36,2.74-8.51,5.79-12.41,9.12c-0.96,0.75-1.95,1.57-2.96,2.42c-1.53,1.3-3.1,2.74-4.69,4.33
					c-3.69,3.84-7.1,7.96-10.17,12.33c-0.92,1.37-1.75,2.69-2.51,3.98c-1.95,3.28-3.46,6.28-4.72,8.81
					c-3.69,7.43-8.47,19.07-10.96,34.38c-0.17,1.41-0.32,2.83-0.44,4.25C494.07,174.77,496.77,174.66,499.56,173.93z"/>
				<path class="st4" d="M694.89,148.91h-0.18h-24.26v-10.18h20.06h0.21c-0.43-0.91-0.89-1.81-1.34-2.7h-0.23h-18.69v-25.8v-0.4
					c-9.98-10.07-22-18.1-35.38-23.46c-4.15-1.57-9.34-3.25-14.68-4.3c-0.39-0.08-0.79-0.16-1.18-0.23
					c-2.28-0.4-4.58-0.68-4.58-0.68c-2.96-0.36-5.32-0.48-7.1-0.58c-10.35-0.54-41.83-2.17-64.06,18.73
					c-4.03,3.79-12.41,11.67-15.51,24.4c-1.73,7.1-2.16,14.46,1.07,29.15c0.35,1.59,0.74,3.23,1.12,4.83
					c1.94,8.13,3.95,16.54,2.11,24.27c-1.8,7.53-8.53,14.12-17.16,16.78c-5.73,1.77-12.14,1.67-19.05-0.31
					c-1.34-0.38-2.47-0.83-3.38-1.22c0.16,1.24,0.35,2.48,0.55,3.7c0.6,0.22,1.23,0.43,1.94,0.64c3.94,1.13,7.74,1.69,11.38,1.69
					c3.31,0,6.49-0.47,9.51-1.4c9.7-3,17.3-10.51,19.36-19.13c2.02-8.49-0.17-17.67-2.11-25.78c-0.39-1.65-0.77-3.21-1.11-4.77
					c-3.09-14.08-2.71-21.04-1.09-27.69c1.02-4.19,2.68-7.82,4.56-10.93c-0.68,1.79-1.25,3.62-1.7,5.51
					c-0.29,1.23-0.45,2.14-0.57,2.8l-0.01,0.07c-0.28,1.57-0.46,3.13-0.58,4.67l-0.05,0c0,0.19,0.01,0.38,0.01,0.57
					c-0.6,9.57,1.68,18.65,4.31,27.84c2.77,9.65,5.91,20.59,3.58,31.46c-1.28,6-5.05,17-15.82,23.16
					c-11.73,6.71-24.32,3.24-29.41,1.34c1.12,4.11,2.48,8.12,4.08,12.01c6.68,0.49,13.51,0.17,19.69-2.64
					c5.74-2.61,10.67-6.86,14.48-11.86c4.47-5.87,7.47-12.71,9.65-19.71c2.05-6.56,2.31-15.71,0.05-22.32
					c4.29,12.6,10.63,41.58-14.25,57.36c-8.49,5.38-18.65,6.18-26.74,5.61c16.16,32.87,49.07,56,87.59,58.27
					c2.2-1.01,5.29-3.83,6.59-4.79c26.83-19.93,34.66-58.07,23.14-88.56c-8.62-22.84-42.31-45.9-37.22-72.53
					c1.15-6.02,5.01-11.31,9.92-14.98c3.92-2.93,8.53-5.12,13.46-6.69c-0.01,1.17-0.03,2.34-0.04,3.51
					c-0.04,4.17-0.08,8.33-0.12,12.5c-0.04,4.6-0.07,9.2-0.08,13.81c-0.01,3.08,0,6.24,0.01,9.35c0.01,3.05-0.26,6.26,0.21,9.28
					c0.35,2.3,2.29,2.97,4.37,3.03c2.37,0.07,4.75-0.06,7.12-0.06c1.35,0,2.69,0,4.04,0v22.04c0,0.98,0.89,1.77,1.99,1.77
					c1.1,0,1.99-0.79,1.99-1.77v-22.04c3.82,0,7.64,0.01,11.46,0.01v79.21c0,1.42,0.88,2.54,1.99,2.54s1.99-1.12,1.99-2.54v-79.2
					c2.06,0,4.12,0,6.18,0c1.39,0,2.77,0,4.16,0v70.58l-0.01,20.81c0,0.13,0,0.26,0,0.38l0,0.22c0,11.73-0.01,23.46,0.01,35.19v0.37
					c0,2.07-0.01,4.9,1.51,7.24c1.08,1.67,2.65,2.63,4.3,2.63c0.31,0,0.63-0.04,0.94-0.1c1.23-0.28,2.04-1.7,1.88-3.32
					c-0.09-0.94-0.51-1.74-1.14-2.2c-0.47-0.34-1.02-0.46-1.56-0.33c-0.28,0.07-0.62-0.13-0.87-0.52c-0.42-0.66-0.45-1.67-0.44-3.4
					v-0.39c0-3.17,0-6.35,0-9.52l0,0c0-9.37-0.01-18.74,0-28.11l0-89.53c3.56,0,7.11,0.01,10.67,0.01v48.7
					c0,1.17,0.89,2.12,1.99,2.12c1.1,0,1.99-0.95,1.99-2.12v-48.7c7.1,0.01,14.2,0.01,21.3,0.02c1.29,0,2.58,0.02,3.87,0.01
					c0.06,0,0.12,0,0.18,0C695.51,150.71,695.2,149.81,694.89,148.91z M530.89,226.54c10.35-6.57,16.72-15.99,18.93-28.02
					c1.87-10.17,0.61-21.91-3.64-33.97c-0.76-2.16-1.57-4.32-2.42-6.6c-3.68-9.87-7.95-20.41-7.59-31.12
					c0.38-11.28,6.73-23.94,16.12-30.49c20.5-14.31,46.08-12.98,55.09-12.52c9.98,0.52,19.08,2.44,27.2,5.13
					c-2.42-0.6-4.87-1.12-7.33-1.56c-14.92-3.18-33.48-4.43-51.83,1.47c-7.67,2.46-17.98,7.11-23.58,15.25
					c-5.32,7.73-6.26,16.6-6.12,22.68c0.21,8.94,2.75,17.56,5.22,25.9c0.29,0.98,0.58,1.98,0.88,2.98c0.58,2.45,1.19,4.88,1.79,7.27
					c1.74,6.88,3.53,13.99,4.35,21.09c1.52,13.28-1.04,24.85-7.23,32.58c-6.34,7.92-14.69,11.1-19.18,12.81
					c-9.05,3.44-17.59,3.92-24.31,3.39C514.81,232.75,523.4,231.29,530.89,226.54z M554.03,233.58c-2.07,1.59-4.44,2.82-6.97,3.76
					c-2.53,0.93-5.21,1.51-7.95,1.91c-13.22,1.77-24.35-0.68-31.71-3.17c1.42,0.1,2.91,0.16,4.47,0.16c6.17,0,13.34-0.93,20.84-3.78
					c11.86-4.51,21.27-11.67,26.04-23.78c4.04-10.26,5.29-22.5,4.35-33.43c-0.19-2.24-0.48-4.43-0.75-6.63l-0.72-5.84
					c0.08,0.2,0.16,0.41,0.24,0.61l1.61,3.81c1.06,2.52,2,4.93,2.73,7.47c0.73,2.53,1.32,5.11,1.73,7.72
					c0.43,2.61,0.72,5.25,0.85,7.89c0.16,2.65,0.14,5.3,0,7.95c-0.13,2.65-0.42,5.29-0.83,7.9c-0.84,5.23-2.29,10.36-4.49,15.12
					C561.24,225.99,558.19,230.39,554.03,233.58z M591.69,101.49c-10.69,5.57-20.32,15.43-21.46,27.98
					c-1.74,19.27,16.39,34.76,19.77,53.81c2.44,13.81-3.49,28.29-13.49,38.13c-5.85,5.76-12.16,9.66-18.03,12.32
					c1.33-1.05,2.58-2.22,3.71-3.48c1.95-2.15,3.61-4.55,5.02-7.06c1.41-2.52,2.57-5.16,3.52-7.87c0.96-2.7,1.69-5.48,2.24-8.28
					c1.1-5.61,1.48-11.34,1.19-17.05c-0.16-2.85-0.49-5.69-0.99-8.51c-0.52-2.81-1.2-5.61-2.1-8.34c-0.9-2.72-2.05-5.42-3.29-7.9
					c-1.21-2.51-2.45-4.91-3.5-7.35c-1.05-2.44-1.95-4.91-2.57-7.48c-0.62-2.56-1-5.19-1.14-7.87c-0.14-2.67-0.04-5.37,0.25-8.08
					c0.03-0.24,0.07-0.48,0.1-0.72c0.03-0.16,0.07-0.32,0.1-0.47c0.09-0.51,0.23-1.01,0.36-1.5c0.13-0.5,0.26-1,0.4-1.49l0.49-1.47
					l0.24-0.73l0.29-0.72l0.58-1.44l0.66-1.4c1.76-3.75,4.16-7.2,6.93-10.32c2.75-3.15,5.98-5.86,9.43-8.23
					c0.42-0.31,0.88-0.57,1.32-0.85c0.45-0.27,0.88-0.57,1.34-0.83c0.92-0.51,1.81-1.05,2.77-1.51l1.42-0.71
					c0.47-0.24,0.96-0.43,1.44-0.65l1.45-0.64l1.47-0.58c1.96-0.78,3.98-1.4,6.02-1.96c1.82-0.44,3.65-0.87,5.51-1.17
					C599.23,98.11,595.39,99.56,591.69,101.49z M621.4,124.5v24.4h-11.46v-24.4V99.01c3.74-0.92,7.61-1.52,11.46-1.84V124.5z
					 M636.85,98.07v26.43v24.4h-11.46v-24.4V96.94c3.98-0.14,7.88-0.01,11.57,0.34C636.89,97.53,636.85,97.79,636.85,98.07z
					 M630.15,92.9c-1.11-0.14-2.22-0.32-3.34-0.42c-1.11-0.1-2.24-0.22-3.35-0.3c-2.21-0.17-4.44-0.3-6.68-0.4
					c-4.48-0.17-9.03-0.14-13.56,0.45c-2.27,0.25-4.53,0.69-6.77,1.19c-2.23,0.55-4.45,1.18-6.61,1.97l-1.62,0.59
					c-0.53,0.21-1.06,0.44-1.59,0.67c-0.53,0.23-1.06,0.44-1.58,0.69l-1.55,0.75c-1.04,0.48-2.05,1.07-3.07,1.61
					c-0.51,0.27-0.99,0.6-1.49,0.89c-0.49,0.31-1,0.59-1.47,0.92c-0.96,0.65-1.93,1.29-2.83,2.01c-0.46,0.35-0.93,0.7-1.38,1.06
					l-1.33,1.12l-0.66,0.56l-0.64,0.59l-1.27,1.19l-1.21,1.25c-0.4,0.42-0.81,0.83-1.19,1.28c-3.07,3.49-5.75,7.37-7.72,11.62
					c-0.24,0.53-0.49,1.06-0.73,1.6l-0.64,1.64l-0.32,0.82l-0.27,0.84l-0.53,1.68c-0.15,0.57-0.29,1.14-0.43,1.71
					c-0.14,0.57-0.29,1.14-0.39,1.72c-0.23,1.15-0.41,2.3-0.54,3.46c-0.53,4.63-0.42,9.23,0.03,13.73c0.22,2.25,0.5,4.47,0.83,6.68
					c0.34,2.21,0.71,4.38,1.07,6.57c0.36,2.15,0.74,4.3,1.11,6.44c-0.56-2.34-1.14-4.66-1.72-6.95c-1.1-4.36-2.24-8.87-3.12-13.32
					c-2.75-13.98-2.1-25.06,1.99-33.89c3.74-8.07,10.83-14.97,19.96-19.44c7.75-3.79,17.14-5.96,27.92-6.45
					c16.48-0.74,32.94,2.46,47.92,9.13c-0.02,0.05-0.04,0.1-0.06,0.15c-2.65-0.99-5.33-1.9-8.06-2.68
					C638.99,94.44,634.6,93.54,630.15,92.9z M640.82,97.74c3.73,0.54,7.19,1.33,10.37,2.24v2.06v22.67v11.32h-10.34v-11.32V98.07
					C640.84,97.96,640.83,97.85,640.82,97.74z M640.84,148.91v-10.18h10.34v10.18H640.84z M666.47,148.91H655.8l0-10.18h10.67
					V148.91z M666.47,106.39v18.32v11.32H655.8l0-33.99c0,0,0,0,0,0v-0.57c3.9,1.39,7.24,2.92,10.03,4.37
					c0.21,0.11,0.44,0.22,0.64,0.32V106.39z"/>
			</g>
		</g>
		<g>
			<path class="st5" d="M339.15,92.46v-0.23c-0.2-0.11-0.43-0.22-0.64-0.32C338.72,92.09,338.94,92.27,339.15,92.46z"/>
			<g>
				<path d="M174.71,173.56c8.16-1.48,14.96-7.17,17.53-15.56c1.46-4.77,1.68-9.67,1.78-14.28c0.02-0.82,0.03-1.64,0.05-2.46
					c0.1-5.93,0.21-12.07,1.8-17.68c0.59-2.1,1.41-4.21,2.48-6.39c-0.05,0.2-0.1,0.4-0.15,0.61l-0.32,1.32
					c-1.72,7.12-2.1,14.77-1.14,22.75c0.08,0.67,0.17,1.34,0.25,2c0.87,6.95,1.7,13.51-0.6,19.9
					c-4.32,11.99-16.97,19.25-29.38,17.18c-0.02,0.79-0.03,1.58-0.03,2.38c0,3.38,0.17,6.73,0.48,10.03
					c0.04,0.42,7.93-1.44,8.54-1.64c3.13-1.01,5.9-2.27,8.54-4.24c5.07-3.77,9.26-8.72,12.11-14.35c4.77-9.42,4.84-19.43,3.55-29.66
					c-0.08-0.66-0.17-1.33-0.25-1.99c-0.92-7.59-0.56-14.85,1.07-21.59l0.32-1.33c1.54-6.44,2.07-8.63,7.28-16.51
					c2.21-2.67,4.7-5.28,7.51-7.32c-4.36,2.74-8.51,5.79-12.41,9.12c-0.96,0.75-1.95,1.57-2.96,2.42c-1.53,1.3-3.1,2.74-4.69,4.33
					c-3.69,3.84-7.1,7.96-10.17,12.33c-1.01,1.43-1.62,2.52-2.51,3.98c-2.82,4.65-5.86,9.66-8.5,15.67
					c-5.18,11.83-6.56,22.42-7.19,27.51c-0.22,1.79-0.36,3.27-0.44,4.25C169.22,174.4,171.92,174.29,174.71,173.56z"/>
				<path d="M370.04,148.54h-0.18h-24.26v-10.18h20.06h0.21c-0.43-0.91-0.89-1.81-1.34-2.7h-0.23h-18.69v-25.8v-0.4
					c-9.98-10.07-22-18.1-35.38-23.46c-4.15-1.57-9.34-3.25-14.68-4.3c-0.39-0.08-0.79-0.16-1.18-0.23
					c-2.28-0.4-4.58-0.68-4.58-0.68c-2.96-0.36-5.32-0.48-7.1-0.58c-10.35-0.54-41.83-2.17-64.06,18.73
					c-4.03,3.79-12.41,11.67-15.51,24.4c-1.73,7.1-2.16,14.46,1.07,29.15c0.35,1.59,0.74,3.23,1.12,4.83
					c1.94,8.13,3.95,16.54,2.11,24.27c-1.8,7.53-8.53,14.12-17.16,16.78c-5.73,1.77-12.14,1.67-19.05-0.31
					c-1.34-0.38-2.47-0.83-3.38-1.22c0.16,1.24,0.35,2.48,0.55,3.7c0.6,0.22,1.23,0.43,1.94,0.64c3.94,1.13,7.74,1.69,11.38,1.69
					c3.31,0,6.49-0.47,9.51-1.4c9.7-3,17.3-10.51,19.36-19.13c2.02-8.49-0.17-17.67-2.11-25.78c-0.39-1.65-0.77-3.21-1.11-4.77
					c-3.09-14.08-2.71-21.04-1.09-27.69c1.02-4.19,2.68-7.82,4.56-10.93c-0.68,1.79-1.25,3.62-1.7,5.51
					c-0.29,1.23-0.45,2.14-0.57,2.8l-0.01,0.07c-0.28,1.57-0.46,3.13-0.58,4.67l-0.05,0c0,0.19,0.01,0.38,0.01,0.57
					c-0.6,9.57,1.68,18.65,4.31,27.84c2.77,9.65,5.91,20.59,3.58,31.46c-1.28,6-5.05,17-15.82,23.16
					c-11.73,6.71-24.32,3.24-29.41,1.34c1.12,4.11,2.48,8.12,4.08,12.01c6.68,0.49,13.51,0.17,19.69-2.64
					c5.74-2.61,10.67-6.86,14.48-11.86c4.47-5.87,7.47-12.71,9.65-19.71c2.05-6.56,2.31-15.71,0.05-22.32
					c4.29,12.6,10.63,41.58-14.25,57.36c-8.49,5.38-18.65,6.18-26.74,5.61c16.16,32.87,49.07,56,87.59,58.27
					c2.2-1.01,5.29-3.83,6.59-4.79c26.83-19.93,34.66-58.07,23.14-88.56c-8.62-22.84-42.31-45.9-37.22-72.53
					c1.15-6.02,5.01-11.31,9.92-14.98c3.92-2.93,8.53-5.12,13.46-6.69c-0.01,1.17-0.03,2.34-0.04,3.51
					c-0.04,4.17-0.08,8.33-0.12,12.5c-0.04,4.6-0.07,9.2-0.08,13.81c-0.01,3.08,0,6.24,0.01,9.35c0.01,3.05-0.26,6.26,0.21,9.28
					c0.35,2.3,2.29,2.97,4.37,3.03c2.37,0.07,4.75-0.06,7.12-0.06c1.35,0,2.69,0,4.04,0v22.04c0,0.98,0.89,1.77,1.99,1.77
					s1.99-0.79,1.99-1.77v-22.04c3.82,0,7.64,0.01,11.46,0.01v79.21c0,1.42,0.88,2.54,1.99,2.54s1.99-1.12,1.99-2.54v-79.2
					c2.06,0,4.12,0,6.18,0c1.39,0,2.77,0,4.16,0v70.58l-0.01,20.81c0,0.13,0,0.26,0,0.38l0,0.22c0,11.73-0.01,23.46,0.01,35.19v0.37
					c0,2.07-0.01,4.9,1.51,7.24c1.08,1.67,2.65,2.63,4.3,2.63c0.31,0,0.63-0.04,0.94-0.1c1.23-0.28,2.04-1.7,1.88-3.32
					c-0.09-0.94-0.51-1.74-1.14-2.2c-0.47-0.34-1.02-0.46-1.56-0.33c-0.28,0.07-0.62-0.13-0.87-0.52c-0.43-0.66-0.45-1.67-0.44-3.4
					v-0.39c0-3.17,0-6.35,0-9.52l0,0c0-9.37-0.01-18.74,0-28.11l0-89.53c3.56,0,7.11,0.01,10.67,0.01v48.7
					c0,1.17,0.89,2.12,1.99,2.12s1.99-0.95,1.99-2.12v-48.7c7.1,0.01,14.2,0.01,21.3,0.02c1.29,0,2.58,0.02,3.87,0.01
					c0.06,0,0.12,0,0.18,0C370.66,150.34,370.35,149.44,370.04,148.54z M206.04,226.17c10.35-6.57,16.72-15.99,18.93-28.02
					c1.87-10.17,0.61-21.91-3.64-33.97c-0.76-2.16-1.57-4.32-2.42-6.6c-3.68-9.87-7.95-20.41-7.59-31.12
					c0.38-11.28,6.73-23.94,16.12-30.49c20.5-14.31,46.08-12.98,55.09-12.52c9.98,0.52,19.08,2.44,27.2,5.13
					c-2.42-0.6-4.87-1.12-7.33-1.56c-14.92-3.18-33.48-4.43-51.83,1.47c-7.67,2.46-17.98,7.11-23.58,15.25
					c-5.32,7.73-6.26,16.6-6.12,22.68c0.21,8.94,2.75,17.56,5.22,25.9c0.29,0.98,0.58,1.98,0.88,2.98c0.58,2.45,1.19,4.88,1.79,7.27
					c1.74,6.88,3.53,13.99,4.35,21.09c1.52,13.28-1.04,24.85-7.23,32.58c-6.34,7.92-14.69,11.1-19.18,12.81
					c-9.05,3.44-17.59,3.92-24.31,3.39C189.96,232.38,198.55,230.92,206.04,226.17z M229.18,233.21c-2.07,1.59-4.44,2.82-6.97,3.76
					c-2.53,0.93-5.21,1.51-7.95,1.91c-13.22,1.77-24.35-0.68-31.71-3.17c1.42,0.1,2.91,0.16,4.47,0.16c6.17,0,13.34-0.93,20.84-3.78
					c11.86-4.51,21.27-11.67,26.04-23.78c4.04-10.26,5.29-22.5,4.35-33.43c-0.19-2.24-0.48-4.43-0.75-6.63l-0.72-5.84
					c0.08,0.2,0.16,0.41,0.24,0.61l1.61,3.81c1.06,2.52,2,4.93,2.73,7.47c0.73,2.53,1.32,5.11,1.73,7.72
					c0.43,2.61,0.72,5.25,0.85,7.89c0.16,2.65,0.14,5.3,0,7.95c-0.13,2.65-0.42,5.29-0.83,7.9c-0.84,5.23-2.29,10.36-4.49,15.12
					C236.39,225.62,233.34,230.03,229.18,233.21z M266.84,101.12c-10.69,5.57-20.32,15.43-21.46,27.98
					c-1.74,19.27,16.39,34.76,19.77,53.81c2.44,13.81-3.49,28.29-13.49,38.13c-5.85,5.76-12.16,9.66-18.03,12.32
					c1.33-1.05,2.58-2.22,3.71-3.48c1.95-2.15,3.61-4.55,5.02-7.06c1.41-2.52,2.57-5.16,3.52-7.87c0.96-2.7,1.69-5.48,2.24-8.28
					c1.1-5.61,1.48-11.34,1.19-17.05c-0.16-2.85-0.49-5.69-0.99-8.51c-0.52-2.81-1.2-5.61-2.1-8.34c-0.9-2.72-2.05-5.42-3.29-7.9
					c-1.21-2.51-2.45-4.91-3.5-7.35c-1.05-2.44-1.95-4.91-2.57-7.48c-0.62-2.56-1-5.19-1.14-7.87c-0.14-2.67-0.04-5.37,0.25-8.08
					c0.03-0.24,0.07-0.48,0.1-0.72c0.03-0.16,0.07-0.32,0.1-0.47c0.09-0.51,0.23-1.01,0.36-1.5c0.13-0.5,0.26-1,0.4-1.49l0.49-1.47
					l0.24-0.73l0.29-0.72l0.58-1.44l0.66-1.4c1.76-3.75,4.16-7.2,6.93-10.32c2.75-3.15,5.98-5.86,9.43-8.23
					c0.42-0.31,0.88-0.57,1.32-0.85c0.45-0.27,0.88-0.57,1.34-0.83c0.92-0.51,1.81-1.05,2.77-1.51l1.42-0.71
					c0.47-0.24,0.96-0.43,1.44-0.65l1.45-0.64l1.47-0.58c1.96-0.78,3.98-1.4,6.02-1.96c1.82-0.44,3.65-0.87,5.51-1.17
					C274.38,97.74,270.54,99.19,266.84,101.12z M296.55,124.14v24.4h-11.46v-24.4V98.64c3.74-0.92,7.61-1.52,11.46-1.84V124.14z
					 M312,97.7v26.43v24.4h-11.46v-24.4V96.57c3.98-0.14,7.88-0.01,11.57,0.34C312.04,97.16,312,97.43,312,97.7z M305.3,92.53
					c-1.11-0.14-2.22-0.32-3.34-0.42c-1.11-0.1-2.24-0.22-3.35-0.3c-2.21-0.17-4.44-0.3-6.68-0.4c-4.48-0.17-9.03-0.14-13.56,0.45
					c-2.27,0.25-4.53,0.69-6.77,1.19c-2.23,0.55-4.45,1.18-6.61,1.97l-1.62,0.59c-0.53,0.21-1.06,0.44-1.59,0.67
					c-0.53,0.23-1.06,0.44-1.58,0.69l-1.55,0.75c-1.04,0.48-2.05,1.07-3.07,1.61c-0.51,0.27-0.99,0.6-1.49,0.89
					c-0.49,0.31-1,0.59-1.47,0.92c-0.96,0.65-1.93,1.29-2.83,2.01c-0.46,0.35-0.93,0.7-1.38,1.06l-1.33,1.12l-0.66,0.56l-0.64,0.59
					l-1.27,1.19l-1.21,1.25c-0.4,0.42-0.81,0.83-1.19,1.28c-3.07,3.49-5.75,7.37-7.72,11.62c-0.24,0.53-0.49,1.06-0.73,1.6
					l-0.64,1.64l-0.32,0.82l-0.27,0.84l-0.53,1.68c-0.15,0.57-0.29,1.14-0.43,1.71c-0.14,0.57-0.29,1.14-0.39,1.72
					c-0.23,1.15-0.41,2.3-0.54,3.46c-0.53,4.63-0.42,9.23,0.03,13.73c0.22,2.25,0.5,4.47,0.83,6.68c0.34,2.21,0.71,4.38,1.07,6.57
					c0.36,2.15,0.74,4.3,1.11,6.44c-0.56-2.34-1.14-4.66-1.72-6.95c-1.1-4.36-2.24-8.87-3.12-13.32
					c-2.75-13.98-2.1-25.06,1.99-33.89c3.74-8.07,10.83-14.97,19.96-19.44c7.75-3.79,17.14-5.96,27.92-6.45
					c16.48-0.74,32.94,2.46,47.92,9.13c-0.02,0.05-0.04,0.1-0.06,0.15c-2.65-0.99-5.33-1.9-8.06-2.68
					C314.14,94.07,309.74,93.17,305.3,92.53z M315.96,97.37c3.73,0.54,7.19,1.33,10.37,2.24v2.06v22.67v11.32h-10.34v-11.32V97.7
					C315.99,97.59,315.98,97.48,315.96,97.37z M315.99,148.54v-10.18h10.34v10.18H315.99z M341.62,148.54h-10.67l0-10.18h10.67
					V148.54z M341.62,106.03v18.32v11.32h-10.67l0-33.99c0,0,0,0,0,0v-0.57c3.9,1.39,7.24,2.92,10.03,4.37
					c0.21,0.11,0.44,0.22,0.64,0.32V106.03z"/>
			</g>
			<path d="M271.09,79.37c57.41,0,103.95,46.54,103.95,103.95S328.5,287.27,271.09,287.27s-103.95-46.54-103.95-103.95
				S213.68,79.37,271.09,79.37 M271.09,75.5c-28.8,0-55.88,11.22-76.24,31.58c-20.37,20.37-31.58,47.44-31.58,76.24
				s11.22,55.88,31.58,76.24c20.37,20.37,47.44,31.58,76.24,31.58s55.88-11.22,76.24-31.58c20.37-20.37,31.58-47.44,31.58-76.24
				s-11.22-55.88-31.58-76.24C326.97,86.71,299.89,75.5,271.09,75.5L271.09,75.5z"/>
			<g>
				<path d="M177.09,325.87h-2.98c0.16-3.39,0.24-6.97,0.24-10.73c0-3.7-0.08-6.94-0.24-9.7h2.98c-0.15,2.86-0.22,6.09-0.22,9.7
					C176.87,318.92,176.94,322.5,177.09,325.87z"/>
				<path d="M196.22,325.87h-2.26c0-0.19-1.46-2.2-4.38-6.04c-3.04-4.02-4.78-6.6-5.21-7.74h-0.16c0.19,2.03,0.28,3.79,0.28,5.27
					c0,2.71,0.06,5.54,0.19,8.51h-2.56c0.16-2.75,0.24-5.68,0.24-8.79c0-3.04-0.08-5.7-0.24-7.97h2.98c0,0.28,1.33,2.21,4,5.78
					c2.8,3.76,4.4,6.22,4.8,7.39h0.16c-0.18-2.05-0.27-3.81-0.27-5.29c0-2.99-0.07-5.62-0.2-7.88h2.62c-0.14,2.25-0.2,4.91-0.2,7.97
					C196.02,320.2,196.09,323.13,196.22,325.87z"/>
				<path d="M212.37,309.11l-0.08,2.02c-1.83-0.09-3.67-0.14-5.52-0.14c-0.03,1.24-0.05,3.26-0.05,6.09c0,2.87,0.04,5.8,0.13,8.79
					h-2.81c0.12-2.88,0.17-5.81,0.17-8.79c0-2.37-0.03-4.41-0.08-6.09c-1.35,0-3.23,0.06-5.65,0.17l0.08-2.06H212.37z"/>
				<path d="M225.99,323.73l-0.08,2.13h-11.28c0.14-2.65,0.2-5.58,0.2-8.79c0-3.04-0.07-5.7-0.2-7.97h10.59l-0.08,2.13
					c-2.6-0.11-5.24-0.17-7.94-0.17c0.06,1.3,0.09,3.01,0.09,5.13c2.33,0,4.51-0.05,6.54-0.16l-0.08,2.09
					c-2.06-0.08-4.22-0.13-6.47-0.13c0,2.1,0.04,4.08,0.13,5.92C220.36,323.92,223.22,323.86,225.99,323.73z"/>
				<path d="M242.6,325.87h-2.98c-0.86-2.4-1.51-4.04-1.97-4.94c-0.46-0.9-0.96-1.48-1.52-1.74c-0.56-0.26-1.46-0.39-2.69-0.39
					c-0.73,0-1.39,0.01-1.98,0.03c0,2.65,0.06,5,0.17,7.05h-2.86c0.14-2.65,0.2-5.58,0.2-8.79c0-3.04-0.07-5.7-0.2-7.97h2.04
					c0.47,0,1.03-0.01,1.67-0.04c0.64-0.02,1.37-0.04,2.17-0.04c4.08,0,6.12,1.31,6.12,3.92c0,2.15-1.15,3.66-3.45,4.54v0.14
					c0.99,0.27,1.79,0.9,2.4,1.88C240.33,320.5,241.29,322.62,242.6,325.87z M238.16,313.85c0-1.97-1.42-2.95-4.25-2.95
					c-1.01,0-1.87,0.05-2.57,0.16c0.06,1.46,0.09,3.43,0.09,5.9c0.55,0.02,1.07,0.03,1.54,0.03
					C236.42,316.99,238.16,315.94,238.16,313.85z"/>
				<path d="M259.12,325.87h-2.26c0-0.19-1.46-2.2-4.38-6.04c-3.04-4.02-4.78-6.6-5.21-7.74h-0.16c0.19,2.03,0.28,3.79,0.28,5.27
					c0,2.71,0.06,5.54,0.19,8.51h-2.56c0.16-2.75,0.24-5.68,0.24-8.79c0-3.04-0.08-5.7-0.24-7.97h2.98c0,0.28,1.33,2.21,4,5.78
					c2.8,3.76,4.4,6.22,4.8,7.39h0.16c-0.18-2.05-0.27-3.81-0.27-5.29c0-2.99-0.07-5.62-0.2-7.88h2.62c-0.14,2.25-0.2,4.91-0.2,7.97
					C258.92,320.2,258.99,323.13,259.12,325.87z"/>
				<path d="M278.6,325.87h-3.25c0-0.58-0.55-2.33-1.65-5.27h-7.61c-1.09,2.9-1.63,4.66-1.63,5.27h-3.08c0-0.33,1.16-3.07,3.49-8.24
					s3.49-8.01,3.49-8.52h3.64c0,0.5,1.1,3.3,3.3,8.4C277.5,322.61,278.6,325.4,278.6,325.87z M273.06,318.73
					c-2.03-4.9-3.04-7.51-3.04-7.83h-0.17c0,0.28-1.05,2.89-3.15,7.83H273.06z"/>
				<path d="M292.19,309.11l-0.08,2.02c-1.83-0.09-3.67-0.14-5.52-0.14c-0.03,1.24-0.05,3.26-0.05,6.09c0,2.87,0.04,5.8,0.13,8.79
					h-2.81c0.12-2.88,0.17-5.81,0.17-8.79c0-2.37-0.03-4.41-0.08-6.09c-1.35,0-3.23,0.06-5.65,0.17l0.08-2.06H292.19z"/>
				<path d="M297.35,325.87h-2.9c0.14-2.75,0.2-5.68,0.2-8.79c0-3.06-0.07-5.71-0.2-7.97h2.9c-0.13,2.31-0.19,4.97-0.19,7.97
					C297.16,320.21,297.23,323.14,297.35,325.87z"/>
				<path d="M317.69,317.22c0,2.79-0.88,5.02-2.64,6.66c-1.76,1.65-3.79,2.47-6.09,2.47c-2.21,0-4.15-0.76-5.81-2.28
					c-1.67-1.52-2.5-3.58-2.5-6.17c0-2.8,0.88-5.03,2.64-6.67c1.76-1.64,3.79-2.46,6.09-2.46c2.21,0,4.15,0.76,5.81,2.28
					S317.69,314.62,317.69,317.22z M314.95,317.5c0-2.13-0.6-3.79-1.81-4.97s-2.59-1.77-4.15-1.77c-1.45,0-2.75,0.62-3.88,1.87
					c-1.14,1.24-1.7,2.89-1.7,4.93c0,2.12,0.6,3.78,1.81,4.97s2.59,1.79,4.15,1.79c1.45,0,2.75-0.63,3.88-1.88
					C314.38,321.19,314.95,319.54,314.95,317.5z"/>
				<path d="M335.08,325.87h-2.26c0-0.19-1.46-2.2-4.38-6.04c-3.04-4.02-4.78-6.6-5.21-7.74h-0.16c0.19,2.03,0.28,3.79,0.28,5.27
					c0,2.71,0.06,5.54,0.19,8.51h-2.56c0.16-2.75,0.24-5.68,0.24-8.79c0-3.04-0.08-5.7-0.24-7.97h2.98c0,0.28,1.33,2.21,4,5.78
					c2.8,3.76,4.4,6.22,4.8,7.39h0.16c-0.18-2.05-0.27-3.81-0.27-5.29c0-2.99-0.07-5.62-0.2-7.88h2.62c-0.14,2.25-0.2,4.91-0.2,7.97
					C334.88,320.2,334.95,323.13,335.08,325.87z"/>
				<path d="M354.56,325.87h-3.25c0-0.58-0.55-2.33-1.65-5.27h-7.61c-1.09,2.9-1.63,4.66-1.63,5.27h-3.08
					c0-0.33,1.16-3.07,3.49-8.24s3.49-8.01,3.49-8.52h3.64c0,0.5,1.1,3.3,3.3,8.4C353.46,322.61,354.56,325.4,354.56,325.87z
					 M349.02,318.73c-2.03-4.9-3.04-7.51-3.04-7.83h-0.17c0,0.28-1.05,2.89-3.15,7.83H349.02z"/>
				<path d="M367.91,323.77l-0.08,2.1h-11.02c0.12-2.15,0.17-5.08,0.17-8.79c0-3.22-0.06-5.88-0.17-7.97h2.87
					c-0.1,1.79-0.16,4.45-0.16,7.97c0,2.86-0.06,5.14-0.17,6.84C362.07,323.92,364.92,323.87,367.91,323.77z"/>
				<path d="M209.01,355.71h-2.53c0-2-0.14-4.89-0.42-8.68c-0.28-3.78-0.43-6.05-0.44-6.81h-0.13c-0.9,2.91-2.03,6.08-3.41,9.49
					c-1.38,3.41-2.06,5.41-2.06,5.99h-1.82c0-0.63-0.64-2.66-1.92-6.1c-1.28-3.44-2.09-5.74-2.43-6.91
					c-0.34-1.17-0.57-1.99-0.7-2.48H193c-0.03,1.23-0.2,3.71-0.53,7.44c-0.33,3.73-0.49,6.41-0.49,8.04h-2.31
					c0-0.09,0.3-2.56,0.91-7.41c0.61-4.85,0.91-8.22,0.91-10.11h3.54c0,0.99,0.72,3.45,2.15,7.4c1.43,3.95,2.15,6.34,2.15,7.17h0.13
					c0-0.83,0.81-3.23,2.42-7.19c1.61-3.96,2.42-6.42,2.42-7.38h3.46c0,1.89,0.21,5.25,0.62,10.06
					C208.81,353.08,209.01,355.56,209.01,355.71z"/>
				<path d="M226.15,355.71h-2.78c0-0.49-0.47-2-1.41-4.52h-6.52c-0.93,2.48-1.4,3.99-1.4,4.52h-2.64c0-0.28,1-2.63,2.99-7.06
					s2.99-6.86,2.99-7.3h3.12c0,0.43,0.94,2.83,2.82,7.2C225.21,352.92,226.15,355.31,226.15,355.71z M221.4,349.59
					c-1.74-4.2-2.61-6.43-2.61-6.71h-0.15c0,0.24-0.9,2.48-2.7,6.71H221.4z"/>
				<path d="M239.94,355.71h-2.56c-0.74-2.05-1.3-3.47-1.69-4.24s-0.83-1.27-1.3-1.49c-0.48-0.22-1.25-0.34-2.31-0.34
					c-0.63,0-1.19,0.01-1.69,0.03c0,2.27,0.05,4.28,0.15,6.04h-2.45c0.12-2.27,0.17-4.78,0.17-7.53c0-2.61-0.06-4.89-0.17-6.83h1.75
					c0.4,0,0.88-0.01,1.43-0.03c0.55-0.02,1.17-0.03,1.86-0.03c3.5,0,5.25,1.12,5.25,3.36c0,1.84-0.99,3.13-2.96,3.89v0.12
					c0.85,0.23,1.54,0.77,2.06,1.61S238.82,352.93,239.94,355.71z M236.13,345.41c0-1.69-1.22-2.53-3.65-2.53
					c-0.87,0-1.61,0.04-2.21,0.13c0.05,1.26,0.08,2.94,0.08,5.06c0.48,0.02,0.91,0.03,1.32,0.03
					C234.65,348.1,236.13,347.2,236.13,345.41z"/>
				<path d="M254.02,355.71h-2.88c0-0.26-0.85-1.46-2.54-3.61c-1.83-2.32-3.12-3.48-3.86-3.48h-0.36c0,1.71,0.04,4.08,0.11,7.09
					h-2.46c0.12-2.27,0.17-4.78,0.17-7.53c0-2.61-0.06-4.89-0.17-6.83h2.46c-0.07,1.97-0.11,3.94-0.11,5.91h0.27
					c0.36,0,1.42-0.94,3.17-2.81c1.73-1.84,2.6-2.87,2.6-3.09h2.52c0,0.22-0.82,1.14-2.46,2.74c-1.64,1.61-2.86,2.67-3.65,3.2v0.12
					c0.89,0.34,2.35,1.8,4.39,4.37C253.09,354.17,254.02,355.48,254.02,355.71z"/>
				<path d="M265.71,353.89l-0.07,1.83h-9.67c0.12-2.27,0.17-4.78,0.17-7.53c0-2.61-0.06-4.89-0.17-6.83h9.08l-0.07,1.83
					c-2.22-0.1-4.49-0.15-6.81-0.15c0.05,1.11,0.08,2.58,0.08,4.4c2,0,3.87-0.04,5.61-0.13l-0.07,1.79
					c-1.77-0.07-3.61-0.11-5.54-0.11c0,1.8,0.04,3.49,0.11,5.07C260.89,354.05,263.34,353.99,265.71,353.89z"/>
				<path d="M278.36,341.35l-0.07,1.74c-1.57-0.08-3.15-0.12-4.74-0.12c-0.03,1.06-0.04,2.8-0.04,5.22c0,2.46,0.04,4.97,0.11,7.53
					h-2.41c0.1-2.47,0.15-4.98,0.15-7.53c0-2.04-0.02-3.78-0.07-5.22c-1.16,0-2.77,0.05-4.84,0.15l0.07-1.76H278.36z"/>
				<path d="M298.82,342.55c0,2.04-0.78,3.57-2.33,4.59c-1.55,1.01-3.64,1.52-6.26,1.52c-0.33,0-0.62-0.01-0.86-0.03
					c0,1.96,0.07,4.32,0.22,7.09h-2.58c0.13-2.55,0.2-5.61,0.2-9.2c0-3.08-0.07-5.86-0.2-8.31h1.92c0.21,0,0.8-0.01,1.77-0.04
					c0.97-0.03,1.8-0.04,2.48-0.04c1.72,0,3.09,0.39,4.11,1.18C298.31,340.08,298.82,341.16,298.82,342.55z M296.57,343.33
					c0-2.3-1.57-3.46-4.72-3.46c-0.77,0-1.64,0.07-2.6,0.2c0.06,1.46,0.09,3.74,0.09,6.83c0.31,0.02,0.7,0.03,1.16,0.03
					C294.55,346.93,296.57,345.73,296.57,343.33z"/>
				<path d="M311.01,353.91l-0.07,1.8h-9.44c0.1-1.85,0.15-4.36,0.15-7.53c0-2.76-0.05-5.04-0.15-6.83h2.46
					c-0.09,1.53-0.13,3.81-0.13,6.83c0,2.45-0.05,4.4-0.15,5.87C306,354.05,308.44,354,311.01,353.91z"/>
				<path d="M326.21,355.71h-2.78c0-0.49-0.47-2-1.41-4.52h-6.52c-0.93,2.48-1.4,3.99-1.4,4.52h-2.64c0-0.28,1-2.63,2.99-7.06
					c2-4.43,2.99-6.86,2.99-7.3h3.12c0,0.43,0.94,2.83,2.82,7.2S326.21,355.31,326.21,355.71z M321.46,349.59
					c-1.74-4.2-2.61-6.43-2.61-6.71h-0.15c0,0.24-0.9,2.48-2.7,6.71H321.46z"/>
				<path d="M338.97,353.78l-0.17,1.84c-1.17,0.26-2.25,0.39-3.21,0.39c-2.72,0-4.76-0.69-6.13-2.08s-2.06-3.08-2.06-5.08
					c0-2.05,0.75-3.85,2.26-5.39c1.51-1.54,3.56-2.31,6.17-2.31c0.77,0,1.56,0.1,2.35,0.3l-0.35,1.92
					c-0.91-0.26-1.73-0.39-2.48-0.39c-1.86,0-3.25,0.54-4.19,1.61c-0.94,1.08-1.41,2.38-1.41,3.9c0,1.55,0.54,2.9,1.62,4.04
					c1.08,1.14,2.6,1.71,4.55,1.71C336.75,354.25,337.76,354.09,338.97,353.78z"/>
				<path d="M351.09,353.89l-0.07,1.83h-9.67c0.12-2.27,0.17-4.78,0.17-7.53c0-2.61-0.06-4.89-0.17-6.83h9.08l-0.07,1.83
					c-2.22-0.1-4.49-0.15-6.81-0.15c0.05,1.11,0.08,2.58,0.08,4.4c2,0,3.87-0.04,5.61-0.13l-0.07,1.79
					c-1.77-0.07-3.61-0.11-5.54-0.11c0,1.8,0.04,3.49,0.11,5.07C346.27,354.05,348.72,353.99,351.09,353.89z"/>
			</g>
		</g>
	</g>
</g>
</svg>
