<?xml version="1.0" encoding="utf-8"?>
<!-- Generator: Adobe Illustrator 24.3.0, SVG Export Plug-In . SVG Version: 6.00 Build 0)  -->
<svg version="1.1" xmlns="http://www.w3.org/2000/svg" xmlns:xlink="http://www.w3.org/1999/xlink" x="0px" y="0px"
	 viewBox="0 0 432 216.07" style="enable-background:new 0 0 432 216.07;" xml:space="preserve">
<style type="text/css">
	.st0{fill:url(#SVGID_1_);}
	.st1{fill:#362511;}
	.st2{fill:#53281A;}
	.st3{fill:#A55033;}
</style>
<g id="Colored_Logo">
</g>
<g id="Layer_2">
	<g>
		<g>
			<radialGradient id="SVGID_1_" cx="308.5226" cy="92.6338" r="51.0971" gradientUnits="userSpaceOnUse">
				<stop  offset="0" style="stop-color:#FDB740"/>
				<stop  offset="0.1544" style="stop-color:#FCB33C"/>
				<stop  offset="0.3024" style="stop-color:#FAA831"/>
				<stop  offset="0.4478" style="stop-color:#F7941D"/>
				<stop  offset="0.4502" style="stop-color:#F7941D"/>
				<stop  offset="0.6894" style="stop-color:#CC7128"/>
				<stop  offset="0.8867" style="stop-color:#B05930"/>
				<stop  offset="1" style="stop-color:#A55033"/>
			</radialGradient>
			<path class="st0" d="M337.02,44.48c-7.48-5.43-16.36-8.85-25.39-7.73c-4.35,0.54-8.5,2.1-12.6,3.65
				c-13.17,4.97-40.45,12.54-35.46,31.92c0.93,3.59,2.6,6.96,3.54,10.54c4.16,15.81-6.33,32.37-3.63,48.5
				c0.85,5.06,3.16,10.08,7.26,13.14c5.75,4.28,13.55,3.91,20.7,3.82c14.28-0.18,28.69,1.5,42.76-0.96
				c6.69-1.17,13.78-3.7,17.3-9.52c4.77-7.89,1.7-19.09,0.36-27.6c-1.69-10.66-3.63-21.53-1.84-32.31
				c0.83-4.97,2.44-9.99,1.54-14.95c-0.88-4.83-4.06-8.91-7.49-12.4C341.91,48.39,339.55,46.32,337.02,44.48z"/>
			<g>
				<path class="st1" d="M239.34,165.94c0-3.94,0.77-6.56,8.08-5.11v2.93c-4.45-0.98-5.04,0-5.04,1.87v3.68v5.37
					c0,1.87,0.59,2.86,5.04,1.87v2.93c-7.31,1.45-8.08-1.17-8.08-5.11v-7.57V165.94z"/>
				<path class="st1" d="M253.45,165.07c0-3.75,2.11-4.73,4.41-4.73c2.16,0,4.45,0.82,4.45,4.73v14.46h-3v-5.34h-2.81v5.34h-3.05
					V165.07z M259.31,164.86c0-1.34-0.52-1.69-1.41-1.69c-0.94,0-1.41,0.4-1.41,1.69v6.51c2.23,0,2.81,0,2.81,0V164.86z"/>
				<path class="st1" d="M272.08,174.19v5.34h-3.05v-18.79h3.75c3.91,0,5.09,1.48,5.09,6.16v1.15c0,4.69-1.17,6.14-5.09,6.14H272.08
					z M272.08,171.35h0.82c1.64,0,1.99-0.35,1.99-1.87v-3.98c0-1.52-0.35-1.87-1.99-1.87h-0.82V171.35z"/>
				<path class="st1" d="M287.01,174.19v5.34h-3.05v-18.79h3.75c3.91,0,5.09,1.48,5.09,6.16v1.15c0,4.69-1.17,6.14-5.09,6.14H287.01
					z M287.01,171.35h0.82c1.64,0,1.99-0.35,1.99-1.87v-3.98c0-1.52-0.35-1.87-1.99-1.87h-0.82V171.35z"/>
				<path class="st1" d="M298.59,165.07c0-3.75,2.11-4.73,4.41-4.73c2.16,0,4.45,0.82,4.45,4.73v14.46h-3v-5.34h-2.81v5.34h-3.05
					V165.07z M304.44,164.86c0-1.34-0.52-1.69-1.41-1.69c-0.94,0-1.41,0.4-1.41,1.69v6.51c2.23,0,2.81,0,2.81,0V164.86z"/>
				<path class="st1" d="M314.17,160.74h3.75c3.91,0,5.09,1.48,5.09,6.16v6.49c0,4.69-1.17,6.14-5.09,6.14h-3.75V160.74z
					 M320.03,165.49c0-1.52-0.35-1.87-1.99-1.87h-0.82v13.05h0.82c1.64,0,1.99-0.35,1.99-1.87V165.49z"/>
				<path class="st1" d="M333.86,180c-2.3,0-4.41-0.98-4.41-4.73v-10.17c0-3.75,2.11-4.73,4.41-4.73c2.11,0,4.45,0.87,4.45,4.73
					v10.17C338.31,179.13,335.97,180,333.86,180z M332.5,175.5c0,1.29,0.47,1.69,1.41,1.69c0.89,0,1.36-0.35,1.36-1.69v-10.64
					c0-1.34-0.47-1.69-1.36-1.69c-0.94,0-1.41,0.4-1.41,1.69V175.5z"/>
				<path class="st1" d="M344.73,165.89c0-3.94,0.77-6.56,8.08-5.11v2.93c-4.45-0.98-5.04,0-5.04,1.87v9.09
					c0,1.87,0.59,2.86,5.04,1.87v2.93c-7.31,1.45-8.08-1.17-8.08-5.11V165.89z"/>
				<path class="st1" d="M362.12,179.53h-2.98v-18.79h2.98V179.53z"/>
				<path class="st1" d="M368.85,165.07c0-3.75,2.11-4.73,4.41-4.73c2.16,0,4.45,0.82,4.45,4.73v14.46h-3v-5.34h-2.81v5.34h-3.05
					V165.07z M374.71,164.86c0-1.34-0.52-1.69-1.41-1.69c-0.94,0-1.41,0.4-1.41,1.69v6.51c2.23,0,2.81,0,2.81,0V164.86z"/>
			</g>
			<path class="st1" d="M281.98,140.84c1.03,0.7,2.08,1.36,3.2,1.8c1.11,0.46,2.31,0.78,3.56,1.08c1.23,0.33,2.59,0.69,3.84,1.25
				c1.24,0.57,2.45,1.22,3.54,2.03c1.1,0.79,2.13,1.68,3.07,2.66c1.02,0.91,1.85,1.97,2.65,3.02c0.28,0.37,0.56,0.74,0.85,1.1
				c0.52,0.64,1.28,1.48,2.58,2.32c0.37,0.24,0.84,0.54,1.41,0.78c0.47,0.12,0.94,0.17,1.4,0.16c0.42-0.01,0.89-0.03,1.35-0.26
				c0.89-0.44,1.25-1.43,1.37-1.78c0.5,0.26,1.65,0.77,3.13,0.62c0.99-0.1,1.74-0.46,2.19-0.72c0.09-0.09,0.19-0.16,0.28-0.26
				c1.58-1.65,1.65-3.81,1.68-4.52c0.05-1.5-0.56-2.76-3.71-8.51c-1.37-2.5-2.99-5.37-4.95-7.92c-1.21-1.57-2.53-3.3-3.57-5.24
				c-0.23-0.31-0.44-0.59-0.63-0.85c-0.17-0.22-0.54-0.73-0.99-1.44c-0.55-0.87-0.99-1.7-1.19-2.17c-0.69-1.54-0.53-2.77-0.62-4.05
				c-0.1-1.43-0.51-2.67-0.98-3.68c-1.64-2.75-3.81-5.06-5.86-7.02l-0.96-0.91c-2.94-2.78-5.72-5.41-6.74-9.86L287.81,98
				c-0.27-1.23-0.55-2.49-1.33-2.88c-0.69-0.34-1.67,0.14-2.21,0.81c-0.62,0.76-0.96,1.77-1.32,2.85l-0.16,0.47
				c-0.62,1.81-1.67,4.42-3.69,6.25c-0.35,0.32-0.72,0.61-1.09,0.89c-0.56,0.44-1.1,0.85-1.49,1.34c-0.41,0.52-0.72,1.18-1.04,1.87
				c-0.41,0.89-0.83,1.8-1.54,2.59c-0.68,0.75-1.5,1.24-2.29,1.71c-0.69,0.41-1.34,0.8-1.81,1.32c-0.49,0.55-0.79,1.27-1.12,2.03
				c-0.21,0.49-0.43,1-0.71,1.5c-0.05,0.09-0.17,0.27-0.29,0.45l-0.14,0.2c-0.23,0.36-0.48,0.73-0.72,1.09
				c-0.53,0.78-1.06,1.53-1.6,2.25c-0.07,0.85-0.11,1.86-0.09,3c0.01,0.46,0.06,1.67,0.25,3.18c0.25,1.99,0.67,3.96,1.36,5.84
				c1.41,3.83,4.01,7.05,7.71,8.87c3.11,1.54,6.56,2.51,10.01,2.77c3.63,0.28,6.47,0.45,6.49,0.24c0.02-0.22-3.02-0.18-6.65-2.08
				c-1.94-1.02-3.17-2.12-3.43-2.37c-2.03-1.89-3.54-4.29-4.37-6.88C278.19,137.47,279.96,139.37,281.98,140.84z"/>
			<path class="st2" d="M336.25,141.52c-0.05-0.77-0.27-1.34-0.35-1.61c-0.4-1.4-1.27-3.28-3.77-6.79c-1.8-2.52-3.71-5.05-4.63-8.12
				c-0.52-1.73-0.71-3.57-1.23-5.3c-1.32-4.38-4.01-7.76-6.97-10.86c-2.77-2.9-5.54-5.35-6.45-9.72c-0.31-1.48-0.55-3.26-1.77-3.92
				c-1.04-0.56-2.33,0.05-3.07,1.05c-0.74,0.99-1.07,2.27-1.46,3.49c-0.64,2.04-1.51,4.07-2.96,5.5c-0.99,0.98-1.49,1.07-2.37,2.25
				c-0.78,1.05-1.18,2.09-1.4,2.83c3.82,4.75,4.73,7.55,4.76,9.28c0.01,0.37-0.01,1.64,0.45,3.24c0.42,1.45,1.03,2.45,1.46,3.13
				c1.99,3.19,3.87,5.72,3.9,5.76c1.96,2.64,3.29,4.76,4.24,6.27c1.41,2.25,3.13,5.2,4.88,8.81c3,0.05,6.49-0.13,10.32-0.76
				c2.03-0.33,3.91-0.75,5.63-1.22C335.84,144.17,336.34,142.98,336.25,141.52z"/>
			<g>
				<g>
					<path class="st3" d="M327.86,95.56c0.59-0.7,1.09-1.5,1.28-2.39c0.41-1.97-0.92-4.29-2.95-4.69c-1.62-0.32-3.27,0.66-4.09,2.03
						c-0.4,0.67-0.62,1.46-0.56,2.24c0.07,0.88,0.48,1.71,1,2.43c0.43,0.59,0.93,1.12,1.41,1.67c0.13,0.14,1.31,1.35,1.42,1.26
						c0.84-0.75,1.66-1.6,2.41-2.45C327.8,95.63,327.83,95.59,327.86,95.56z"/>
					<path class="st3" d="M324.7,99.06c-0.06,0.06-0.1,0.13-0.13,0.24c-0.06,0.23-0.11,0.46-0.15,0.7
						c-0.03,0.17,0.02,0.32,0.21,0.39c0.11,0.04,0.23,0.04,0.35,0.03c0.31-0.01,0.63-0.02,0.94-0.03c0.16-0.01,0.38-0.03,0.43-0.21
						c0.02-0.06,0.01-0.12,0.01-0.18c-0.01-0.16-0.04-0.31-0.07-0.47c-0.05-0.24-0.14-0.52-0.41-0.6c-0.16-0.05-0.34-0.04-0.51-0.03
						C325.09,98.9,324.85,98.91,324.7,99.06z"/>
					<path class="st3" d="M319.47,102.06c0.01,0,0.01,0,0.02,0c0.14,0,0.44-0.37,0.53-0.46c0.66-0.64,1.21-1.4,1.53-2.27
						c0.23-0.61,0.28-1.32-0.01-1.9c-0.37-0.76-1.26-1.17-2.11-1.15c-0.45,0.01-0.91,0.14-1.28,0.41c-0.57,0.42-0.85,1.15-0.83,1.86
						s0.32,1.38,0.72,1.96c0.28,0.4,0.61,0.75,0.95,1.1C319.09,101.71,319.33,102.04,319.47,102.06z"/>
					<path class="st3" d="M319.01,102.76c-0.05,0.04-0.08,0.09-0.1,0.17c-0.05,0.16-0.09,0.33-0.12,0.49
						c-0.02,0.12,0.02,0.23,0.16,0.27c0.08,0.03,0.18,0.03,0.27,0.02c0.24-0.01,0.48-0.01,0.72-0.02c0.12,0,0.29-0.02,0.33-0.15
						c0.01-0.04,0.01-0.08,0-0.12c-0.01-0.11-0.03-0.22-0.05-0.33c-0.04-0.17-0.1-0.37-0.31-0.43c-0.13-0.03-0.26-0.03-0.39-0.02
						C319.31,102.64,319.13,102.65,319.01,102.76z"/>
				</g>
				<path class="st3" d="M351.96,124.77c-0.37-2.31-0.92-4.24-1.23-5.26c-1.32-4.35-4.01-7.7-6.97-10.77
					c-2.77-2.87-5.54-5.31-6.45-9.65c-0.31-1.47-0.55-3.23-1.77-3.89c-1.04-0.56-2.33,0.05-3.07,1.04
					c-0.74,0.98-1.07,2.26-1.46,3.47c-0.64,2.03-1.51,4.04-2.96,5.46c-0.78,0.76-1.71,1.34-2.37,2.23c-0.76,1.02-1.1,2.37-1.74,3.47
					c1.89,2.31,3.63,5.01,4.63,8.31c0.28,0.91,0.46,1.83,0.64,2.73c0.18,0.88,0.34,1.72,0.59,2.53c0.8,2.64,2.47,4.96,4.08,7.19
					l0.39,0.54c2.22,3.09,3.39,5.2,3.94,7.08l0.04,0.14c0.1,0.33,0.3,0.93,0.35,1.71c0.07,1.08-0.21,2-0.47,3.01
					c1.45-0.12,4.34-0.54,7.32-2.47c3.33-2.15,4.87-4.93,5.21-5.58c1.44-2.72,1.63-5.17,1.7-6.16
					C352.5,128.12,352.28,126.78,351.96,124.77z"/>
			</g>
		</g>
		<g>
			<g>
				<path d="M54.29,166.72c0-3.94,0.77-6.56,8.08-5.11v2.93c-4.45-0.98-5.04,0-5.04,1.87v3.68v5.37c0,1.87,0.59,2.86,5.04,1.87v2.93
					c-7.31,1.45-8.08-1.17-8.08-5.11v-7.57V166.72z"/>
				<path d="M68.4,165.85c0-3.75,2.11-4.73,4.41-4.73c2.16,0,4.45,0.82,4.45,4.73v14.46h-3v-5.34h-2.81v5.34H68.4V165.85z
					 M74.26,165.64c0-1.34-0.52-1.69-1.41-1.69c-0.94,0-1.41,0.4-1.41,1.69v6.51c2.23,0,2.81,0,2.81,0V165.64z"/>
				<path d="M87.03,174.97v5.34h-3.05v-18.79h3.75c3.91,0,5.09,1.48,5.09,6.16v1.15c0,4.69-1.17,6.14-5.09,6.14H87.03z
					 M87.03,172.13h0.82c1.64,0,1.99-0.35,1.99-1.87v-3.98c0-1.52-0.35-1.87-1.99-1.87h-0.82V172.13z"/>
				<path d="M101.96,174.97v5.34h-3.05v-18.79h3.75c3.91,0,5.09,1.48,5.09,6.16v1.15c0,4.69-1.17,6.14-5.09,6.14H101.96z
					 M101.96,172.13h0.82c1.64,0,1.99-0.35,1.99-1.87v-3.98c0-1.52-0.35-1.87-1.99-1.87h-0.82V172.13z"/>
				<path d="M113.54,165.85c0-3.75,2.11-4.73,4.41-4.73c2.16,0,4.45,0.82,4.45,4.73v14.46h-3v-5.34h-2.81v5.34h-3.05V165.85z
					 M119.4,165.64c0-1.34-0.52-1.69-1.41-1.69c-0.94,0-1.41,0.4-1.41,1.69v6.51c2.23,0,2.81,0,2.81,0V165.64z"/>
				<path d="M129.13,161.52h3.75c3.91,0,5.09,1.48,5.09,6.16v6.49c0,4.69-1.17,6.14-5.09,6.14h-3.75V161.52z M134.98,166.28
					c0-1.52-0.35-1.87-1.99-1.87h-0.82v13.05h0.82c1.64,0,1.99-0.35,1.99-1.87V166.28z"/>
				<path d="M148.81,180.78c-2.3,0-4.41-0.98-4.41-4.73v-10.17c0-3.75,2.11-4.73,4.41-4.73c2.11,0,4.45,0.87,4.45,4.73v10.17
					C153.26,179.91,150.92,180.78,148.81,180.78z M147.45,176.28c0,1.29,0.47,1.69,1.41,1.69c0.89,0,1.36-0.35,1.36-1.69v-10.64
					c0-1.34-0.47-1.69-1.36-1.69c-0.94,0-1.41,0.4-1.41,1.69V176.28z"/>
				<path d="M159.69,166.67c0-3.94,0.77-6.56,8.08-5.11v2.93c-4.45-0.98-5.04,0-5.04,1.87v9.09c0,1.87,0.59,2.86,5.04,1.87v2.93
					c-7.31,1.45-8.08-1.17-8.08-5.11V166.67z"/>
				<path d="M177.08,180.31h-2.98v-18.79h2.98V180.31z"/>
				<path d="M183.8,165.85c0-3.75,2.11-4.73,4.41-4.73c2.16,0,4.45,0.82,4.45,4.73v14.46h-3v-5.34h-2.81v5.34h-3.05V165.85z
					 M189.66,165.64c0-1.34-0.52-1.69-1.41-1.69c-0.94,0-1.41,0.4-1.41,1.69v6.51c2.23,0,2.81,0,2.81,0V165.64z"/>
			</g>
			<g>
				<path d="M136.77,97.37c0.13,0.14,1.31,1.35,1.42,1.26c0.84-0.75,1.66-1.6,2.41-2.45c0.03-0.03,0.06-0.06,0.08-0.1
					c0.59-0.7,1.09-1.5,1.28-2.39c0.41-1.97-0.92-4.29-2.95-4.69c-1.62-0.32-3.27,0.66-4.09,2.03c-0.4,0.67-0.62,1.46-0.56,2.24
					c0.07,0.88,0.48,1.71,1,2.43C135.78,96.29,136.29,96.82,136.77,97.37z"/>
				<path d="M138.68,99.44c-0.16-0.05-0.34-0.04-0.51-0.03c-0.26,0.01-0.5,0.02-0.65,0.17c-0.06,0.06-0.1,0.13-0.13,0.24
					c-0.06,0.23-0.11,0.46-0.15,0.7c-0.03,0.17,0.02,0.32,0.21,0.39c0.11,0.04,0.23,0.04,0.35,0.03c0.31-0.01,0.63-0.02,0.94-0.03
					c0.16-0.01,0.38-0.03,0.43-0.21c0.02-0.06,0.01-0.12,0.01-0.18c-0.01-0.16-0.04-0.31-0.07-0.47
					C139.04,99.8,138.95,99.52,138.68,99.44z"/>
				<path d="M131.81,102.13c0.09,0.09,0.34,0.42,0.48,0.45c0.01,0,0.01,0,0.02,0c0.14,0,0.44-0.37,0.53-0.46
					c0.66-0.64,1.21-1.4,1.53-2.27c0.23-0.61,0.28-1.32-0.01-1.9c-0.37-0.76-1.26-1.17-2.11-1.15c-0.45,0.01-0.91,0.14-1.28,0.41
					c-0.57,0.42-0.85,1.15-0.83,1.86c0.02,0.71,0.32,1.38,0.72,1.96C131.14,101.43,131.47,101.79,131.81,102.13z"/>
				<path d="M132.72,103.18c-0.13-0.03-0.26-0.03-0.39-0.02c-0.2,0.01-0.38,0.01-0.5,0.12c-0.05,0.04-0.08,0.09-0.1,0.17
					c-0.05,0.16-0.09,0.33-0.12,0.49c-0.02,0.12,0.02,0.23,0.16,0.27c0.08,0.03,0.18,0.03,0.27,0.02c0.24-0.01,0.48-0.01,0.72-0.02
					c0.12,0,0.29-0.02,0.33-0.15c0.01-0.04,0.01-0.08,0-0.12c-0.01-0.11-0.03-0.22-0.05-0.33
					C133,103.43,132.93,103.24,132.72,103.18z"/>
				<path d="M133.95,148.89c0.01,0,0.02,0,0.03,0c-0.03,0-0.06,0-0.1,0C133.91,148.88,133.93,148.89,133.95,148.89z"/>
				<path d="M169.08,129.28c0.14-1.62,0.12-3.3-0.07-5.02c-0.57-5.19-1.49-10.45-2.38-15.59c-1.62-9.44-3.81-20.33-1.83-32.16
					c0.83-4.95,2.44-9.95,1.54-14.88c-0.88-4.81-4.05-8.87-7.48-12.35c-2.16-2.19-4.52-4.25-7.05-6.08
					c-7.48-5.41-16.35-8.81-25.38-7.69c-4.35,0.54-8.49,2.09-12.59,3.64c-13.17,4.95-40.43,12.49-35.44,31.77
					c0.93,3.58,2.6,6.92,3.54,10.5c3.39,12.83-2.94,26.15-3.94,39.33l-0.03,0.04l-0.03,0.27c-0.14,1.44-0.18,2.91-0.12,4.36
					c0.01,0.23,0.11,1.69,0.31,3.12c0.25,1.8,0.72,5.16,2.87,8.69c1.16,1.92,3.79,5.44,8.29,7.47c3.46,1.55,7.05,1.66,10.52,1.77
					c1.09,0.03,2.23,0.07,3.33,0.15c2.65,0.19,4.65,0.82,6.1,1.92c0.98,0.75,1.77,1.74,2.6,2.79c0.28,0.35,0.55,0.7,0.84,1.04
					c0.87,1.04,1.77,1.82,2.92,2.54c0.55,0.34,1.38,0.86,2.48,1.16c0.48,0.13,1.1,0.3,1.86,0.25c1.4-0.09,2.43-0.82,2.95-1.27
					c0.51,0.06,3.48,0.33,5.73-1.77c1.54-1.44,1.97-3.26,2.1-4.48c1.09,0.05,2.2,0.09,3.35,0.09c3.22,0,6.7-0.23,10.4-0.78
					c2.12-0.31,4.25-0.72,6.32-1.21l0.52-0.12l0.02-0.03c3.87-0.93,7.62-2.28,10.37-4.26C166.34,139.14,168.62,134.51,169.08,129.28
					z M102.3,76.66c1.19-1.74,7.51-10.99,18.94-11.59c10.68-0.57,17.65,6.84,19.1,8.38c7.79,8.27,7.32,18.48,7.21,20.26
					c-0.03,0.49-0.08,1.14-0.16,1.87c-1.12,0.17-2.18,0.82-2.87,1.64c-0.87,1.03-1.3,2.28-1.68,3.38l-0.15,0.44
					c-0.81,2.29-1.73,3.83-2.9,4.86c-0.29,0.26-0.6,0.49-0.91,0.72c-0.63,0.47-1.28,0.95-1.83,1.63c-0.59,0.71-0.95,1.48-1.31,2.23
					c-0.13,0.27-0.25,0.52-0.38,0.76c-0.62-0.63-1.23-1.23-1.84-1.79l-0.94-0.86c-2.68-2.45-4.99-4.56-5.81-8.02l-0.1-0.42
					c-0.35-1.53-0.78-3.42-2.54-4.28c-1.77-0.85-3.81,0.04-4.92,1.35c-0.87,1.03-1.3,2.29-1.69,3.39l-0.15,0.43
					c-0.51,1.44-1.36,3.51-2.9,4.86c-0.29,0.25-0.6,0.49-0.91,0.72c-0.63,0.47-1.28,0.96-1.84,1.63c-0.57,0.69-0.94,1.45-1.29,2.19
					c0,0,0,0,0,0c-0.5-0.5-1.01-0.99-1.5-1.45l-0.91-0.84c-2.64-2.42-4.92-4.5-5.74-7.96l-0.1-0.42c-0.33-1.44-0.73-3.23-2.36-4.01
					c-0.71-0.34-1.47-0.36-2.19-0.19C96.17,86.24,100.93,78.66,102.3,76.66z M128.74,147.72c-0.02,0.65-0.09,2.61-1.58,4.12
					c-0.09,0.09-0.18,0.16-0.27,0.23c-0.44,0.24-1.15,0.56-2.07,0.66c-1.54,0.17-2.73-0.36-3.22-0.62c-0.02,0.16-0.17,1.1-1.02,1.68
					c-0.75,0.51-1.75,0.54-2.59,0.09c-0.53-0.22-0.98-0.5-1.33-0.72c-1.23-0.77-1.94-1.54-2.43-2.12c-0.27-0.33-0.54-0.66-0.81-1
					c-0.75-0.95-1.54-1.92-2.5-2.75c-0.88-0.89-1.85-1.7-2.89-2.43c-1.03-0.74-2.16-1.33-3.34-1.85c-1.18-0.51-2.46-0.84-3.62-1.14
					c-1.18-0.27-2.31-0.57-3.36-0.99c-1.06-0.4-2.05-1-3.02-1.64c-1.91-1.34-3.58-3.07-5.1-5.02c0.78,2.36,2.2,4.55,4.11,6.27
					c0.95,0.87,2.05,1.58,3.24,2.16c1.2,0.55,2.45,0.88,3.64,1.19c0.93,0.21,1.78,0.44,2.63,0.7c-1.13-0.08-2.27-0.12-3.36-0.15
					c-3.42-0.1-6.66-0.2-9.75-1.59c-4.01-1.8-6.35-4.95-7.39-6.66c-1.93-3.18-2.36-6.26-2.59-7.92c-0.19-1.34-0.28-2.73-0.29-2.93
					c-0.06-1.26-0.03-2.54,0.08-3.8c0.31-0.45,0.73-1.05,1.23-1.78l0.13-0.19c0.12-0.17,0.23-0.33,0.27-0.41
					c0.26-0.46,0.47-0.92,0.66-1.37c0.31-0.7,0.59-1.35,1.05-1.85c0.44-0.47,1.05-0.83,1.7-1.2c0.74-0.43,1.51-0.87,2.16-1.56
					c0.67-0.72,1.07-1.55,1.45-2.36c0.3-0.63,0.59-1.23,0.98-1.71c0.37-0.45,0.87-0.82,1.4-1.22c0.35-0.26,0.7-0.53,1.03-0.82
					c1.9-1.67,2.89-4.05,3.47-5.69l0.15-0.43c0.34-0.98,0.66-1.91,1.24-2.6c0.51-0.61,1.43-1.05,2.08-0.74
					c0.74,0.36,1,1.51,1.26,2.63l0.1,0.44c0.96,4.06,3.58,6.46,6.35,8.99l0.9,0.83c1.93,1.79,3.97,3.89,5.52,6.4
					c0.44,0.92,0.82,2.05,0.92,3.35c0.09,1.16-0.07,2.28,0.58,3.69c0.2,0.43,0.61,1.19,1.13,1.98c0.42,0.65,0.77,1.1,0.93,1.31
					c0.18,0.23,0.37,0.49,0.59,0.77c0.98,1.77,2.22,3.34,3.37,4.77c1.85,2.32,3.38,4.94,4.67,7.22
					C128.21,145.21,128.79,146.35,128.74,147.72z M130.75,147.02C130.75,147.02,130.75,147.02,130.75,147.02
					C130.75,147.02,130.75,147.02,130.75,147.02z M149.63,144.53c-1.82,0.42-3.68,0.77-5.55,1.04c-4.95,0.73-9.45,0.87-13.47,0.65
					c-0.36-1.49-1.37-3.33-3.6-7.27c-1.33-2.34-2.9-5.05-4.85-7.49c-1.62-2.03-3.3-4.13-4.14-6.61c-0.26-0.78-0.44-1.58-0.63-2.44
					c-0.19-0.86-0.39-1.76-0.69-2.63c-0.97-2.87-2.6-5.29-4.4-7.37c0.15-0.29,0.29-0.57,0.42-0.85c0.3-0.64,0.59-1.24,0.97-1.7
					c0.36-0.44,0.87-0.81,1.4-1.21c0.36-0.27,0.73-0.55,1.07-0.84c1.99-1.75,3.02-4.22,3.62-5.93l0.16-0.44
					c0.34-0.98,0.66-1.91,1.23-2.58c0.46-0.54,1.29-0.96,1.84-0.69c0.65,0.31,0.91,1.44,1.16,2.53l0.1,0.45
					c1,4.23,3.83,6.82,6.57,9.32l0.92,0.85c2.83,2.63,5.91,5.88,7.34,10.11c0.26,0.78,0.45,1.59,0.64,2.46
					c0.2,0.9,0.41,1.82,0.72,2.74c1.02,2.99,2.98,5.44,4.88,7.8l0.44,0.54c2.86,3.56,3.61,5.21,3.94,6.25l0.07,0.21
					c0.09,0.26,0.22,0.62,0.26,1.07C150.1,143.16,149.96,143.85,149.63,144.53z M164.8,135.5c-1.15,1.88-2.7,3.53-4.6,4.89
					c-1.88,1.35-4.47,2.48-7.69,3.39c0.08-0.49,0.13-0.99,0.1-1.48c-0.06-0.8-0.28-1.42-0.4-1.75l-0.05-0.13
					c-0.61-1.88-1.92-3.99-4.38-7.06l-0.44-0.55c-1.76-2.19-3.58-4.45-4.45-7.02c-0.27-0.79-0.45-1.6-0.64-2.47
					c-0.2-0.89-0.4-1.81-0.71-2.72c-0.97-2.88-2.58-5.3-4.37-7.4c0.36-0.54,0.64-1.11,0.89-1.63c0.3-0.64,0.59-1.24,0.97-1.7
					c0.36-0.44,0.86-0.81,1.39-1.21c0.37-0.27,0.73-0.55,1.07-0.85c1.99-1.74,3.02-4.22,3.62-5.93l0.16-0.45
					c0.34-0.98,0.66-1.91,1.22-2.58c0.46-0.54,1.29-0.96,1.85-0.7c0.65,0.32,0.91,1.44,1.15,2.53l0.11,0.45
					c1,4.23,3.83,6.82,6.57,9.32l0.92,0.85c2.83,2.63,5.91,5.88,7.34,10.11c0.09,0.26,0.18,0.67,0.31,1.23
					c0.23,0.95,0.53,2.26,1.03,3.92c0.32,1.07,0.52,1.68,0.66,2.09c0.17,0.51,0.2,0.61,0.24,0.92
					C166.95,131.99,165.65,134.11,164.8,135.5z"/>
			</g>
		</g>
	</g>
</g>
</svg>
